<mxfile host="Electron" modified="2023-08-31T16:57:28.708Z" agent="Mozilla/5.0 (Macintosh; Intel Mac OS X 10_15_7) AppleWebKit/537.36 (KHTML, like Gecko) draw.io/21.6.8 Chrome/114.0.5735.289 Electron/25.5.0 Safari/537.36" etag="KIVk3VnquS94pFyVe7h0" version="21.6.8" type="device" pages="2">
  <diagram name="Page-1" id="1zgP8kVO7WHCjqLw7a8B">
    <mxGraphModel dx="3984" dy="2074" grid="1" gridSize="10" guides="1" tooltips="1" connect="1" arrows="1" fold="1" page="1" pageScale="1" pageWidth="850" pageHeight="1100" math="0" shadow="0">
      <root>
        <mxCell id="0" />
        <mxCell id="1" parent="0" />
        <mxCell id="kY58WrOnhBQpwYX-1obf-91" value="" style="endArrow=classic;html=1;rounded=0;entryX=0.799;entryY=0.965;entryDx=0;entryDy=0;entryPerimeter=0;exitX=0.002;exitY=0.424;exitDx=0;exitDy=0;exitPerimeter=0;" parent="1" source="kY58WrOnhBQpwYX-1obf-13" target="kY58WrOnhBQpwYX-1obf-15" edge="1">
          <mxGeometry width="50" height="50" relative="1" as="geometry">
            <mxPoint x="-47.33012701892267" y="233.5" as="sourcePoint" />
            <mxPoint x="-91.71572875253787" y="138.28427124746167" as="targetPoint" />
          </mxGeometry>
        </mxCell>
        <mxCell id="HLl5qWVt4bRKjdiENAfM-1" value="consistOf" style="edgeLabel;html=1;align=center;verticalAlign=middle;resizable=0;points=[];" parent="kY58WrOnhBQpwYX-1obf-91" vertex="1" connectable="0">
          <mxGeometry x="-0.1477" relative="1" as="geometry">
            <mxPoint as="offset" />
          </mxGeometry>
        </mxCell>
        <mxCell id="kY58WrOnhBQpwYX-1obf-3" value="" style="edgeStyle=orthogonalEdgeStyle;rounded=0;orthogonalLoop=1;jettySize=auto;html=1;" parent="1" source="kY58WrOnhBQpwYX-1obf-1" target="kY58WrOnhBQpwYX-1obf-2" edge="1">
          <mxGeometry relative="1" as="geometry" />
        </mxCell>
        <mxCell id="kY58WrOnhBQpwYX-1obf-84" value="&lt;b&gt;hasAuthority&lt;/b&gt;" style="edgeLabel;html=1;align=center;verticalAlign=middle;resizable=0;points=[];" parent="kY58WrOnhBQpwYX-1obf-3" vertex="1" connectable="0">
          <mxGeometry x="0.0412" y="2" relative="1" as="geometry">
            <mxPoint as="offset" />
          </mxGeometry>
        </mxCell>
        <mxCell id="kY58WrOnhBQpwYX-1obf-177" value="" style="edgeStyle=orthogonalEdgeStyle;rounded=0;orthogonalLoop=1;jettySize=auto;html=1;" parent="1" source="kY58WrOnhBQpwYX-1obf-1" target="kY58WrOnhBQpwYX-1obf-176" edge="1">
          <mxGeometry relative="1" as="geometry" />
        </mxCell>
        <mxCell id="quBKCBcTdmR20H2L2Pyo-35" value="hasName" style="edgeLabel;html=1;align=center;verticalAlign=middle;resizable=0;points=[];fontStyle=1" parent="kY58WrOnhBQpwYX-1obf-177" vertex="1" connectable="0">
          <mxGeometry x="-0.2654" y="-1" relative="1" as="geometry">
            <mxPoint as="offset" />
          </mxGeometry>
        </mxCell>
        <mxCell id="kY58WrOnhBQpwYX-1obf-1" value="State" style="ellipse;whiteSpace=wrap;html=1;" parent="1" vertex="1">
          <mxGeometry x="720" y="209" width="120" height="80" as="geometry" />
        </mxCell>
        <mxCell id="kY58WrOnhBQpwYX-1obf-5" value="" style="edgeStyle=orthogonalEdgeStyle;rounded=0;orthogonalLoop=1;jettySize=auto;html=1;" parent="1" source="kY58WrOnhBQpwYX-1obf-2" target="kY58WrOnhBQpwYX-1obf-4" edge="1">
          <mxGeometry relative="1" as="geometry" />
        </mxCell>
        <mxCell id="kY58WrOnhBQpwYX-1obf-85" value="&lt;b&gt;hasAuthority&lt;/b&gt;" style="edgeLabel;html=1;align=center;verticalAlign=middle;resizable=0;points=[];shadow=1;fillColor=#66FF66;strokeColor=#00FF00;" parent="kY58WrOnhBQpwYX-1obf-5" vertex="1" connectable="0">
          <mxGeometry x="0.0647" y="-3" relative="1" as="geometry">
            <mxPoint as="offset" />
          </mxGeometry>
        </mxCell>
        <mxCell id="kY58WrOnhBQpwYX-1obf-2" value="Organization" style="ellipse;whiteSpace=wrap;html=1;" parent="1" vertex="1">
          <mxGeometry x="530" y="209" width="80" height="80" as="geometry" />
        </mxCell>
        <mxCell id="kY58WrOnhBQpwYX-1obf-7" value="" style="edgeStyle=orthogonalEdgeStyle;rounded=0;orthogonalLoop=1;jettySize=auto;html=1;" parent="1" source="kY58WrOnhBQpwYX-1obf-4" target="kY58WrOnhBQpwYX-1obf-6" edge="1">
          <mxGeometry relative="1" as="geometry">
            <Array as="points">
              <mxPoint x="270" y="390" />
              <mxPoint x="475" y="390" />
            </Array>
          </mxGeometry>
        </mxCell>
        <mxCell id="quBKCBcTdmR20H2L2Pyo-43" value="LocatedIn" style="edgeLabel;html=1;align=center;verticalAlign=middle;resizable=0;points=[];fontStyle=1" parent="kY58WrOnhBQpwYX-1obf-7" vertex="1" connectable="0">
          <mxGeometry x="-0.6308" y="3" relative="1" as="geometry">
            <mxPoint as="offset" />
          </mxGeometry>
        </mxCell>
        <mxCell id="kY58WrOnhBQpwYX-1obf-14" value="" style="edgeStyle=orthogonalEdgeStyle;rounded=0;orthogonalLoop=1;jettySize=auto;html=1;" parent="1" source="kY58WrOnhBQpwYX-1obf-4" target="kY58WrOnhBQpwYX-1obf-13" edge="1">
          <mxGeometry relative="1" as="geometry" />
        </mxCell>
        <mxCell id="kY58WrOnhBQpwYX-1obf-86" value="consistOf" style="edgeLabel;html=1;align=center;verticalAlign=middle;resizable=0;points=[];fontStyle=1" parent="kY58WrOnhBQpwYX-1obf-14" vertex="1" connectable="0">
          <mxGeometry x="-0.183" y="-3" relative="1" as="geometry">
            <mxPoint x="-4" y="-7" as="offset" />
          </mxGeometry>
        </mxCell>
        <mxCell id="kY58WrOnhBQpwYX-1obf-4" value="Public_hospital" style="ellipse;whiteSpace=wrap;html=1;" parent="1" vertex="1">
          <mxGeometry x="220" y="210" width="100" height="80" as="geometry" />
        </mxCell>
        <mxCell id="kY58WrOnhBQpwYX-1obf-9" value="" style="edgeStyle=orthogonalEdgeStyle;rounded=0;orthogonalLoop=1;jettySize=auto;html=1;entryX=0.5;entryY=0;entryDx=0;entryDy=0;exitX=0;exitY=0.5;exitDx=0;exitDy=0;" parent="1" source="kY58WrOnhBQpwYX-1obf-6" target="kY58WrOnhBQpwYX-1obf-51" edge="1">
          <mxGeometry relative="1" as="geometry">
            <mxPoint x="159.99995674738147" y="480.0588235294117" as="targetPoint" />
            <mxPoint x="270" y="430" as="sourcePoint" />
          </mxGeometry>
        </mxCell>
        <mxCell id="kY58WrOnhBQpwYX-1obf-135" value="hasAddress" style="edgeLabel;html=1;align=center;verticalAlign=middle;resizable=0;points=[];fontStyle=1" parent="kY58WrOnhBQpwYX-1obf-9" vertex="1" connectable="0">
          <mxGeometry x="-0.4793" y="-1" relative="1" as="geometry">
            <mxPoint x="-17" y="1" as="offset" />
          </mxGeometry>
        </mxCell>
        <mxCell id="kY58WrOnhBQpwYX-1obf-11" value="" style="edgeStyle=orthogonalEdgeStyle;rounded=0;orthogonalLoop=1;jettySize=auto;html=1;entryX=0.5;entryY=0;entryDx=0;entryDy=0;" parent="1" source="kY58WrOnhBQpwYX-1obf-6" target="kY58WrOnhBQpwYX-1obf-53" edge="1">
          <mxGeometry relative="1" as="geometry">
            <mxPoint x="370" y="540" as="targetPoint" />
          </mxGeometry>
        </mxCell>
        <mxCell id="kY58WrOnhBQpwYX-1obf-136" value="Longitude" style="edgeLabel;html=1;align=center;verticalAlign=middle;resizable=0;points=[];fontStyle=1" parent="kY58WrOnhBQpwYX-1obf-11" vertex="1" connectable="0">
          <mxGeometry x="-0.5326" y="3" relative="1" as="geometry">
            <mxPoint x="34" y="28" as="offset" />
          </mxGeometry>
        </mxCell>
        <mxCell id="kY58WrOnhBQpwYX-1obf-54" value="" style="edgeStyle=orthogonalEdgeStyle;rounded=0;orthogonalLoop=1;jettySize=auto;html=1;" parent="1" source="kY58WrOnhBQpwYX-1obf-6" target="kY58WrOnhBQpwYX-1obf-52" edge="1">
          <mxGeometry relative="1" as="geometry" />
        </mxCell>
        <mxCell id="kY58WrOnhBQpwYX-1obf-137" value="Lattitude" style="edgeLabel;html=1;align=center;verticalAlign=middle;resizable=0;points=[];fontStyle=1" parent="kY58WrOnhBQpwYX-1obf-54" vertex="1" connectable="0">
          <mxGeometry x="-0.4602" y="-3" relative="1" as="geometry">
            <mxPoint x="3" y="-26" as="offset" />
          </mxGeometry>
        </mxCell>
        <mxCell id="kY58WrOnhBQpwYX-1obf-6" value="Location" style="ellipse;whiteSpace=wrap;html=1;" parent="1" vertex="1">
          <mxGeometry x="425" y="490" width="100" height="70" as="geometry" />
        </mxCell>
        <mxCell id="kY58WrOnhBQpwYX-1obf-13" value="Division" style="ellipse;whiteSpace=wrap;html=1;" parent="1" vertex="1">
          <mxGeometry x="-40" y="210" width="150" height="80" as="geometry" />
        </mxCell>
        <mxCell id="kY58WrOnhBQpwYX-1obf-139" value="" style="edgeStyle=orthogonalEdgeStyle;rounded=0;orthogonalLoop=1;jettySize=auto;html=1;" parent="1" source="kY58WrOnhBQpwYX-1obf-15" target="kY58WrOnhBQpwYX-1obf-32" edge="1">
          <mxGeometry relative="1" as="geometry" />
        </mxCell>
        <mxCell id="kY58WrOnhBQpwYX-1obf-140" value="hasSchedule" style="edgeLabel;html=1;align=center;verticalAlign=middle;resizable=0;points=[];" parent="kY58WrOnhBQpwYX-1obf-139" vertex="1" connectable="0">
          <mxGeometry x="0.1867" y="2" relative="1" as="geometry">
            <mxPoint x="-8" y="21" as="offset" />
          </mxGeometry>
        </mxCell>
        <mxCell id="kY58WrOnhBQpwYX-1obf-15" value="Specialist_Doctors" style="ellipse;whiteSpace=wrap;html=1;" parent="1" vertex="1">
          <mxGeometry x="-260" y="-30" width="110" height="80" as="geometry" />
        </mxCell>
        <mxCell id="kY58WrOnhBQpwYX-1obf-40" value="" style="edgeStyle=orthogonalEdgeStyle;rounded=0;orthogonalLoop=1;jettySize=auto;html=1;" parent="1" source="kY58WrOnhBQpwYX-1obf-17" target="kY58WrOnhBQpwYX-1obf-39" edge="1">
          <mxGeometry relative="1" as="geometry" />
        </mxCell>
        <mxCell id="quBKCBcTdmR20H2L2Pyo-101" value="has_list" style="edgeLabel;html=1;align=center;verticalAlign=middle;resizable=0;points=[];" parent="kY58WrOnhBQpwYX-1obf-40" vertex="1" connectable="0">
          <mxGeometry x="-0.0104" y="-3" relative="1" as="geometry">
            <mxPoint as="offset" />
          </mxGeometry>
        </mxCell>
        <mxCell id="kY58WrOnhBQpwYX-1obf-17" value="Pharmacy" style="ellipse;whiteSpace=wrap;html=1;" parent="1" vertex="1">
          <mxGeometry x="-602.05" y="400" width="120" height="90" as="geometry" />
        </mxCell>
        <mxCell id="kY58WrOnhBQpwYX-1obf-19" value="Vaccine_service" style="ellipse;whiteSpace=wrap;html=1;" parent="1" vertex="1">
          <mxGeometry x="-322.05" y="631.1600000000001" width="110" height="80" as="geometry" />
        </mxCell>
        <mxCell id="kY58WrOnhBQpwYX-1obf-26" value="Cardiologist" style="ellipse;whiteSpace=wrap;html=1;" parent="1" vertex="1">
          <mxGeometry x="-225" y="-570" width="110" height="80" as="geometry" />
        </mxCell>
        <mxCell id="kY58WrOnhBQpwYX-1obf-28" value="Neurologist" style="ellipse;whiteSpace=wrap;html=1;" parent="1" vertex="1">
          <mxGeometry x="-90.00000000000001" y="-570" width="110" height="80" as="geometry" />
        </mxCell>
        <mxCell id="kY58WrOnhBQpwYX-1obf-31" value="Peditrician" style="ellipse;whiteSpace=wrap;html=1;" parent="1" vertex="1">
          <mxGeometry x="-380" y="-570" width="110" height="80" as="geometry" />
        </mxCell>
        <mxCell id="kY58WrOnhBQpwYX-1obf-32" value="Schedule_service" style="ellipse;whiteSpace=wrap;html=1;" parent="1" vertex="1">
          <mxGeometry x="10" y="-70" width="120" height="70" as="geometry" />
        </mxCell>
        <mxCell id="kY58WrOnhBQpwYX-1obf-82" value="" style="edgeStyle=orthogonalEdgeStyle;rounded=0;orthogonalLoop=1;jettySize=auto;html=1;" parent="1" source="kY58WrOnhBQpwYX-1obf-34" target="kY58WrOnhBQpwYX-1obf-80" edge="1">
          <mxGeometry relative="1" as="geometry" />
        </mxCell>
        <mxCell id="kY58WrOnhBQpwYX-1obf-34" value="Insurance_payment" style="ellipse;whiteSpace=wrap;html=1;" parent="1" vertex="1">
          <mxGeometry x="-767.05" y="-80" width="150" height="60" as="geometry" />
        </mxCell>
        <mxCell id="kY58WrOnhBQpwYX-1obf-39" value="Medicine_list" style="ellipse;whiteSpace=wrap;html=1;" parent="1" vertex="1">
          <mxGeometry x="-802.05" y="370" width="80" height="80" as="geometry" />
        </mxCell>
        <mxCell id="g-iiaFzWzwkfeZwgKF3h-95" value="" style="edgeStyle=orthogonalEdgeStyle;rounded=0;orthogonalLoop=1;jettySize=auto;html=1;" parent="1" source="kY58WrOnhBQpwYX-1obf-43" target="g-iiaFzWzwkfeZwgKF3h-94" edge="1">
          <mxGeometry relative="1" as="geometry" />
        </mxCell>
        <mxCell id="g-iiaFzWzwkfeZwgKF3h-96" value="hasPriceService" style="edgeLabel;html=1;align=center;verticalAlign=middle;resizable=0;points=[];" parent="g-iiaFzWzwkfeZwgKF3h-95" vertex="1" connectable="0">
          <mxGeometry x="-0.3026" y="-1" relative="1" as="geometry">
            <mxPoint x="16" y="-11" as="offset" />
          </mxGeometry>
        </mxCell>
        <mxCell id="kY58WrOnhBQpwYX-1obf-43" value="Hospital_bed&lt;br&gt;" style="ellipse;whiteSpace=wrap;html=1;" parent="1" vertex="1">
          <mxGeometry x="70" y="470" width="80" height="80" as="geometry" />
        </mxCell>
        <mxCell id="kY58WrOnhBQpwYX-1obf-51" value="String" style="whiteSpace=wrap;html=1;" parent="1" vertex="1">
          <mxGeometry x="330" y="760" width="120" height="60" as="geometry" />
        </mxCell>
        <mxCell id="kY58WrOnhBQpwYX-1obf-52" value="integer" style="whiteSpace=wrap;html=1;" parent="1" vertex="1">
          <mxGeometry x="470" y="620" width="120" height="60" as="geometry" />
        </mxCell>
        <mxCell id="kY58WrOnhBQpwYX-1obf-53" value="Integer" style="whiteSpace=wrap;html=1;" parent="1" vertex="1">
          <mxGeometry x="650" y="620" width="120" height="60" as="geometry" />
        </mxCell>
        <mxCell id="kY58WrOnhBQpwYX-1obf-56" value="Internist" style="ellipse;whiteSpace=wrap;html=1;" parent="1" vertex="1">
          <mxGeometry x="-552.05" y="-580" width="110" height="80" as="geometry" />
        </mxCell>
        <mxCell id="kY58WrOnhBQpwYX-1obf-101" value="" style="edgeStyle=orthogonalEdgeStyle;rounded=0;orthogonalLoop=1;jettySize=auto;html=1;" parent="1" source="kY58WrOnhBQpwYX-1obf-62" target="kY58WrOnhBQpwYX-1obf-100" edge="1">
          <mxGeometry relative="1" as="geometry" />
        </mxCell>
        <mxCell id="quBKCBcTdmR20H2L2Pyo-9" value="has_vaccine_name" style="edgeLabel;html=1;align=center;verticalAlign=middle;resizable=0;points=[];" parent="kY58WrOnhBQpwYX-1obf-101" vertex="1" connectable="0">
          <mxGeometry x="0.0286" y="1" relative="1" as="geometry">
            <mxPoint as="offset" />
          </mxGeometry>
        </mxCell>
        <mxCell id="kY58WrOnhBQpwYX-1obf-62" value="Adult&lt;br&gt;Vaccine&lt;br&gt;Service" style="ellipse;whiteSpace=wrap;html=1;" parent="1" vertex="1">
          <mxGeometry x="-582.05" y="591.1600000000001" width="80" height="80" as="geometry" />
        </mxCell>
        <mxCell id="kY58WrOnhBQpwYX-1obf-72" value="" style="endArrow=classic;html=1;rounded=0;entryX=0.602;entryY=1.002;entryDx=0;entryDy=0;exitX=0;exitY=0.5;exitDx=0;exitDy=0;entryPerimeter=0;" parent="1" source="quBKCBcTdmR20H2L2Pyo-88" target="kY58WrOnhBQpwYX-1obf-56" edge="1">
          <mxGeometry width="50" height="50" relative="1" as="geometry">
            <mxPoint x="-270.4766767442013" y="4.120719340210144" as="sourcePoint" />
            <mxPoint x="-615" y="-193" as="targetPoint" />
          </mxGeometry>
        </mxCell>
        <mxCell id="kY58WrOnhBQpwYX-1obf-73" value="" style="endArrow=classic;html=1;rounded=0;entryX=0.5;entryY=1;entryDx=0;entryDy=0;exitX=0;exitY=0.5;exitDx=0;exitDy=0;" parent="1" source="quBKCBcTdmR20H2L2Pyo-89" target="kY58WrOnhBQpwYX-1obf-31" edge="1">
          <mxGeometry width="50" height="50" relative="1" as="geometry">
            <mxPoint x="-320" y="-60" as="sourcePoint" />
            <mxPoint x="-575" y="-180" as="targetPoint" />
          </mxGeometry>
        </mxCell>
        <mxCell id="kY58WrOnhBQpwYX-1obf-74" value="" style="endArrow=classic;html=1;rounded=0;entryX=0.5;entryY=1;entryDx=0;entryDy=0;exitX=0;exitY=0.5;exitDx=0;exitDy=0;" parent="1" source="quBKCBcTdmR20H2L2Pyo-90" target="kY58WrOnhBQpwYX-1obf-26" edge="1">
          <mxGeometry width="50" height="50" relative="1" as="geometry">
            <mxPoint x="-270" y="-90" as="sourcePoint" />
            <mxPoint x="-435" y="-180" as="targetPoint" />
          </mxGeometry>
        </mxCell>
        <mxCell id="kY58WrOnhBQpwYX-1obf-75" value="" style="endArrow=classic;html=1;rounded=0;entryX=0.5;entryY=1;entryDx=0;entryDy=0;exitX=0;exitY=0.5;exitDx=0;exitDy=0;" parent="1" source="quBKCBcTdmR20H2L2Pyo-91" target="kY58WrOnhBQpwYX-1obf-28" edge="1">
          <mxGeometry width="50" height="50" relative="1" as="geometry">
            <mxPoint x="-210" y="-90" as="sourcePoint" />
            <mxPoint x="-305" y="-180" as="targetPoint" />
          </mxGeometry>
        </mxCell>
        <mxCell id="kY58WrOnhBQpwYX-1obf-168" value="" style="edgeStyle=orthogonalEdgeStyle;rounded=0;orthogonalLoop=1;jettySize=auto;html=1;" parent="1" source="kY58WrOnhBQpwYX-1obf-78" target="kY58WrOnhBQpwYX-1obf-167" edge="1">
          <mxGeometry relative="1" as="geometry" />
        </mxCell>
        <mxCell id="quBKCBcTdmR20H2L2Pyo-18" value="Insurance_name" style="edgeLabel;html=1;align=center;verticalAlign=middle;resizable=0;points=[];" parent="kY58WrOnhBQpwYX-1obf-168" vertex="1" connectable="0">
          <mxGeometry x="0.1869" y="4" relative="1" as="geometry">
            <mxPoint as="offset" />
          </mxGeometry>
        </mxCell>
        <mxCell id="kY58WrOnhBQpwYX-1obf-78" value="Public Insurance" style="ellipse;whiteSpace=wrap;html=1;" parent="1" vertex="1">
          <mxGeometry x="-822.05" y="-270" width="80" height="80" as="geometry" />
        </mxCell>
        <mxCell id="kY58WrOnhBQpwYX-1obf-170" value="" style="edgeStyle=orthogonalEdgeStyle;rounded=0;orthogonalLoop=1;jettySize=auto;html=1;" parent="1" source="kY58WrOnhBQpwYX-1obf-80" target="kY58WrOnhBQpwYX-1obf-169" edge="1">
          <mxGeometry relative="1" as="geometry" />
        </mxCell>
        <mxCell id="quBKCBcTdmR20H2L2Pyo-19" value="Insurance_name" style="edgeLabel;html=1;align=center;verticalAlign=middle;resizable=0;points=[];" parent="kY58WrOnhBQpwYX-1obf-170" vertex="1" connectable="0">
          <mxGeometry x="0.0301" y="-4" relative="1" as="geometry">
            <mxPoint as="offset" />
          </mxGeometry>
        </mxCell>
        <mxCell id="kY58WrOnhBQpwYX-1obf-80" value="Private Insurance" style="ellipse;whiteSpace=wrap;html=1;" parent="1" vertex="1">
          <mxGeometry x="-657.05" y="-270" width="80" height="80" as="geometry" />
        </mxCell>
        <mxCell id="kY58WrOnhBQpwYX-1obf-83" value="" style="edgeStyle=orthogonalEdgeStyle;rounded=0;orthogonalLoop=1;jettySize=auto;html=1;entryX=0.5;entryY=1;entryDx=0;entryDy=0;exitX=0.5;exitY=0;exitDx=0;exitDy=0;" parent="1" source="kY58WrOnhBQpwYX-1obf-34" target="kY58WrOnhBQpwYX-1obf-78" edge="1">
          <mxGeometry relative="1" as="geometry">
            <mxPoint x="-682.05" y="-80" as="sourcePoint" />
            <mxPoint x="-607.05" y="-180" as="targetPoint" />
          </mxGeometry>
        </mxCell>
        <mxCell id="kY58WrOnhBQpwYX-1obf-89" value="" style="endArrow=classic;html=1;rounded=0;entryX=0.5;entryY=0;entryDx=0;entryDy=0;exitX=0.5;exitY=1;exitDx=0;exitDy=0;startArrow=none;" parent="1" source="kY58WrOnhBQpwYX-1obf-13" target="kY58WrOnhBQpwYX-1obf-43" edge="1">
          <mxGeometry width="50" height="50" relative="1" as="geometry">
            <mxPoint x="36.7101007166284" y="298.6984631039295" as="sourcePoint" />
            <mxPoint x="-63" y="420" as="targetPoint" />
          </mxGeometry>
        </mxCell>
        <mxCell id="g-iiaFzWzwkfeZwgKF3h-97" value="consistOf" style="edgeLabel;html=1;align=center;verticalAlign=middle;resizable=0;points=[];" parent="kY58WrOnhBQpwYX-1obf-89" vertex="1" connectable="0">
          <mxGeometry x="-0.3168" y="-1" relative="1" as="geometry">
            <mxPoint as="offset" />
          </mxGeometry>
        </mxCell>
        <mxCell id="kY58WrOnhBQpwYX-1obf-93" value="" style="endArrow=classic;html=1;rounded=0;startArrow=none;" parent="1" target="kY58WrOnhBQpwYX-1obf-19" edge="1">
          <mxGeometry width="50" height="50" relative="1" as="geometry">
            <mxPoint x="10" y="290" as="sourcePoint" />
            <mxPoint x="-238.81" y="474.5299999999999" as="targetPoint" />
          </mxGeometry>
        </mxCell>
        <mxCell id="g-iiaFzWzwkfeZwgKF3h-91" value="consistOf" style="edgeLabel;html=1;align=center;verticalAlign=middle;resizable=0;points=[];" parent="kY58WrOnhBQpwYX-1obf-93" vertex="1" connectable="0">
          <mxGeometry x="0.2004" y="2" relative="1" as="geometry">
            <mxPoint x="99" y="-139" as="offset" />
          </mxGeometry>
        </mxCell>
        <mxCell id="kY58WrOnhBQpwYX-1obf-100" value="String" style="rounded=0;whiteSpace=wrap;html=1;" parent="1" vertex="1">
          <mxGeometry x="-842.05" y="601.1600000000001" width="120" height="60" as="geometry" />
        </mxCell>
        <mxCell id="kY58WrOnhBQpwYX-1obf-126" value="" style="edgeStyle=orthogonalEdgeStyle;rounded=0;orthogonalLoop=1;jettySize=auto;html=1;" parent="1" target="kY58WrOnhBQpwYX-1obf-125" edge="1">
          <mxGeometry relative="1" as="geometry">
            <mxPoint x="-10" y="810" as="sourcePoint" />
          </mxGeometry>
        </mxCell>
        <mxCell id="quBKCBcTdmR20H2L2Pyo-6" value="HasNumberofBeds" style="edgeLabel;html=1;align=center;verticalAlign=middle;resizable=0;points=[];fontStyle=1" parent="kY58WrOnhBQpwYX-1obf-126" vertex="1" connectable="0">
          <mxGeometry x="-0.0857" y="-3" relative="1" as="geometry">
            <mxPoint as="offset" />
          </mxGeometry>
        </mxCell>
        <mxCell id="kY58WrOnhBQpwYX-1obf-118" value="1stClass" style="ellipse;whiteSpace=wrap;html=1;" parent="1" vertex="1">
          <mxGeometry x="-51" y="730" width="80" height="80" as="geometry" />
        </mxCell>
        <mxCell id="kY58WrOnhBQpwYX-1obf-128" value="" style="edgeStyle=orthogonalEdgeStyle;rounded=0;orthogonalLoop=1;jettySize=auto;html=1;" parent="1" target="kY58WrOnhBQpwYX-1obf-127" edge="1">
          <mxGeometry relative="1" as="geometry">
            <mxPoint x="105" y="810" as="sourcePoint" />
          </mxGeometry>
        </mxCell>
        <mxCell id="quBKCBcTdmR20H2L2Pyo-7" value="HasNumberofBeds" style="edgeLabel;html=1;align=center;verticalAlign=middle;resizable=0;points=[];fontStyle=1" parent="kY58WrOnhBQpwYX-1obf-128" vertex="1" connectable="0">
          <mxGeometry x="-0.2" y="-1" relative="1" as="geometry">
            <mxPoint as="offset" />
          </mxGeometry>
        </mxCell>
        <mxCell id="kY58WrOnhBQpwYX-1obf-119" value="2ndClass" style="ellipse;whiteSpace=wrap;html=1;" parent="1" vertex="1">
          <mxGeometry x="64" y="730" width="80" height="80" as="geometry" />
        </mxCell>
        <mxCell id="kY58WrOnhBQpwYX-1obf-130" value="" style="edgeStyle=orthogonalEdgeStyle;rounded=0;orthogonalLoop=1;jettySize=auto;html=1;" parent="1" target="kY58WrOnhBQpwYX-1obf-129" edge="1">
          <mxGeometry relative="1" as="geometry">
            <mxPoint x="220" y="820" as="sourcePoint" />
          </mxGeometry>
        </mxCell>
        <mxCell id="quBKCBcTdmR20H2L2Pyo-8" value="HasNumberofBeds" style="edgeLabel;html=1;align=center;verticalAlign=middle;resizable=0;points=[];fontStyle=1" parent="kY58WrOnhBQpwYX-1obf-130" vertex="1" connectable="0">
          <mxGeometry x="-0.6" relative="1" as="geometry">
            <mxPoint as="offset" />
          </mxGeometry>
        </mxCell>
        <mxCell id="kY58WrOnhBQpwYX-1obf-120" value="3rdClass" style="ellipse;whiteSpace=wrap;html=1;" parent="1" vertex="1">
          <mxGeometry x="179" y="740" width="80" height="80" as="geometry" />
        </mxCell>
        <mxCell id="kY58WrOnhBQpwYX-1obf-122" value="" style="endArrow=classic;html=1;rounded=0;entryX=0.5;entryY=0;entryDx=0;entryDy=0;startArrow=none;" parent="1" source="quBKCBcTdmR20H2L2Pyo-70" target="kY58WrOnhBQpwYX-1obf-118" edge="1">
          <mxGeometry width="50" height="50" relative="1" as="geometry">
            <mxPoint x="90" y="550" as="sourcePoint" />
            <mxPoint x="55" y="740" as="targetPoint" />
          </mxGeometry>
        </mxCell>
        <mxCell id="kY58WrOnhBQpwYX-1obf-123" value="" style="endArrow=classic;html=1;rounded=0;entryX=0.5;entryY=0;entryDx=0;entryDy=0;" parent="1" target="kY58WrOnhBQpwYX-1obf-119" edge="1">
          <mxGeometry width="50" height="50" relative="1" as="geometry">
            <mxPoint x="110" y="560" as="sourcePoint" />
            <mxPoint x="100" y="770" as="targetPoint" />
          </mxGeometry>
        </mxCell>
        <mxCell id="kY58WrOnhBQpwYX-1obf-124" value="" style="endArrow=classic;html=1;rounded=0;entryX=0.5;entryY=0;entryDx=0;entryDy=0;" parent="1" target="kY58WrOnhBQpwYX-1obf-120" edge="1">
          <mxGeometry width="50" height="50" relative="1" as="geometry">
            <mxPoint x="140" y="550" as="sourcePoint" />
            <mxPoint x="110" y="780" as="targetPoint" />
          </mxGeometry>
        </mxCell>
        <mxCell id="kY58WrOnhBQpwYX-1obf-125" value="Integer" style="whiteSpace=wrap;html=1;" parent="1" vertex="1">
          <mxGeometry x="-70" y="880" width="120" height="60" as="geometry" />
        </mxCell>
        <mxCell id="kY58WrOnhBQpwYX-1obf-127" value="Integer" style="whiteSpace=wrap;html=1;" parent="1" vertex="1">
          <mxGeometry x="45" y="960" width="120" height="60" as="geometry" />
        </mxCell>
        <mxCell id="kY58WrOnhBQpwYX-1obf-129" value="Integer" style="whiteSpace=wrap;html=1;" parent="1" vertex="1">
          <mxGeometry x="160" y="880" width="120" height="60" as="geometry" />
        </mxCell>
        <mxCell id="kY58WrOnhBQpwYX-1obf-145" value="Internist&#39;s Name" style="rounded=0;whiteSpace=wrap;html=1;" parent="1" vertex="1">
          <mxGeometry x="-557.05" y="-700" width="120" height="60" as="geometry" />
        </mxCell>
        <mxCell id="kY58WrOnhBQpwYX-1obf-146" value="Peditrician&#39;s Name" style="rounded=0;whiteSpace=wrap;html=1;" parent="1" vertex="1">
          <mxGeometry x="-385" y="-690" width="120" height="60" as="geometry" />
        </mxCell>
        <mxCell id="kY58WrOnhBQpwYX-1obf-147" value="Cardiologist_name" style="rounded=0;whiteSpace=wrap;html=1;" parent="1" vertex="1">
          <mxGeometry x="-230" y="-690" width="120" height="60" as="geometry" />
        </mxCell>
        <mxCell id="kY58WrOnhBQpwYX-1obf-148" value="Neurologist_name" style="rounded=0;whiteSpace=wrap;html=1;" parent="1" vertex="1">
          <mxGeometry x="-95.00000000000001" y="-690" width="120" height="60" as="geometry" />
        </mxCell>
        <mxCell id="kY58WrOnhBQpwYX-1obf-149" value="" style="endArrow=classic;html=1;rounded=0;entryX=0.5;entryY=1;entryDx=0;entryDy=0;exitX=0.5;exitY=0;exitDx=0;exitDy=0;" parent="1" source="kY58WrOnhBQpwYX-1obf-31" target="kY58WrOnhBQpwYX-1obf-146" edge="1">
          <mxGeometry width="50" height="50" relative="1" as="geometry">
            <mxPoint x="-315" y="-540" as="sourcePoint" />
            <mxPoint x="-265" y="-590" as="targetPoint" />
          </mxGeometry>
        </mxCell>
        <mxCell id="quBKCBcTdmR20H2L2Pyo-21" value="doctors&#39;s name" style="edgeLabel;html=1;align=center;verticalAlign=middle;resizable=0;points=[];" parent="kY58WrOnhBQpwYX-1obf-149" vertex="1" connectable="0">
          <mxGeometry x="0.1725" relative="1" as="geometry">
            <mxPoint as="offset" />
          </mxGeometry>
        </mxCell>
        <mxCell id="kY58WrOnhBQpwYX-1obf-150" value="" style="endArrow=classic;html=1;rounded=0;entryX=0.5;entryY=1;entryDx=0;entryDy=0;exitX=0.5;exitY=0;exitDx=0;exitDy=0;" parent="1" source="kY58WrOnhBQpwYX-1obf-28" target="kY58WrOnhBQpwYX-1obf-148" edge="1">
          <mxGeometry width="50" height="50" relative="1" as="geometry">
            <mxPoint x="-35" y="-400" as="sourcePoint" />
            <mxPoint x="15" y="-450" as="targetPoint" />
          </mxGeometry>
        </mxCell>
        <mxCell id="quBKCBcTdmR20H2L2Pyo-23" value="doctors&#39;s name" style="edgeLabel;html=1;align=center;verticalAlign=middle;resizable=0;points=[];" parent="kY58WrOnhBQpwYX-1obf-150" vertex="1" connectable="0">
          <mxGeometry x="-0.0235" y="-1" relative="1" as="geometry">
            <mxPoint as="offset" />
          </mxGeometry>
        </mxCell>
        <mxCell id="kY58WrOnhBQpwYX-1obf-151" value="" style="endArrow=classic;html=1;rounded=0;entryX=0.5;entryY=1;entryDx=0;entryDy=0;exitX=0.5;exitY=0;exitDx=0;exitDy=0;" parent="1" source="kY58WrOnhBQpwYX-1obf-26" target="kY58WrOnhBQpwYX-1obf-147" edge="1">
          <mxGeometry width="50" height="50" relative="1" as="geometry">
            <mxPoint x="-180" y="-560" as="sourcePoint" />
            <mxPoint x="-130" y="-610" as="targetPoint" />
          </mxGeometry>
        </mxCell>
        <mxCell id="quBKCBcTdmR20H2L2Pyo-22" value="doctors&#39;s name" style="edgeLabel;html=1;align=center;verticalAlign=middle;resizable=0;points=[];" parent="kY58WrOnhBQpwYX-1obf-151" vertex="1" connectable="0">
          <mxGeometry x="-0.0627" y="-3" relative="1" as="geometry">
            <mxPoint as="offset" />
          </mxGeometry>
        </mxCell>
        <mxCell id="kY58WrOnhBQpwYX-1obf-152" value="" style="endArrow=classic;html=1;rounded=0;entryX=0.5;entryY=1;entryDx=0;entryDy=0;exitX=0.5;exitY=0;exitDx=0;exitDy=0;" parent="1" source="kY58WrOnhBQpwYX-1obf-56" target="kY58WrOnhBQpwYX-1obf-145" edge="1">
          <mxGeometry width="50" height="50" relative="1" as="geometry">
            <mxPoint x="-317.05" y="-570" as="sourcePoint" />
            <mxPoint x="-322.05" y="-630" as="targetPoint" />
          </mxGeometry>
        </mxCell>
        <mxCell id="quBKCBcTdmR20H2L2Pyo-20" value="doctors&#39;s name" style="edgeLabel;html=1;align=center;verticalAlign=middle;resizable=0;points=[];" parent="kY58WrOnhBQpwYX-1obf-152" vertex="1" connectable="0">
          <mxGeometry x="0.0549" y="1" relative="1" as="geometry">
            <mxPoint as="offset" />
          </mxGeometry>
        </mxCell>
        <mxCell id="kY58WrOnhBQpwYX-1obf-160" value="Payment" style="ellipse;whiteSpace=wrap;html=1;" parent="1" vertex="1">
          <mxGeometry x="-535" y="90" width="120" height="80" as="geometry" />
        </mxCell>
        <mxCell id="kY58WrOnhBQpwYX-1obf-162" value="" style="endArrow=classic;html=1;rounded=0;entryX=0.5;entryY=1;entryDx=0;entryDy=0;exitX=0;exitY=0;exitDx=0;exitDy=0;" parent="1" source="kY58WrOnhBQpwYX-1obf-160" target="kY58WrOnhBQpwYX-1obf-34" edge="1">
          <mxGeometry width="50" height="50" relative="1" as="geometry">
            <mxPoint x="-360" y="295" as="sourcePoint" />
            <mxPoint x="-1750" y="960" as="targetPoint" />
          </mxGeometry>
        </mxCell>
        <mxCell id="kY58WrOnhBQpwYX-1obf-167" value="Public_insrance&lt;br&gt;Name" style="whiteSpace=wrap;html=1;" parent="1" vertex="1">
          <mxGeometry x="-842.05" y="-420" width="120" height="60" as="geometry" />
        </mxCell>
        <mxCell id="kY58WrOnhBQpwYX-1obf-169" value="Private_insurance&lt;br&gt;Name" style="whiteSpace=wrap;html=1;" parent="1" vertex="1">
          <mxGeometry x="-677.05" y="-420" width="120" height="60" as="geometry" />
        </mxCell>
        <mxCell id="kY58WrOnhBQpwYX-1obf-171" value="Children&lt;br&gt;Vaccine&lt;br&gt;Service" style="ellipse;whiteSpace=wrap;html=1;" parent="1" vertex="1">
          <mxGeometry x="-572.05" y="701.1600000000001" width="80" height="80" as="geometry" />
        </mxCell>
        <mxCell id="kY58WrOnhBQpwYX-1obf-172" value="" style="endArrow=classic;html=1;rounded=0;exitX=0;exitY=0.5;exitDx=0;exitDy=0;" parent="1" source="quBKCBcTdmR20H2L2Pyo-73" target="kY58WrOnhBQpwYX-1obf-171" edge="1">
          <mxGeometry width="50" height="50" relative="1" as="geometry">
            <mxPoint x="-342.05" y="661.1600000000001" as="sourcePoint" />
            <mxPoint x="-292.05" y="611.1600000000001" as="targetPoint" />
          </mxGeometry>
        </mxCell>
        <mxCell id="kY58WrOnhBQpwYX-1obf-173" value="" style="endArrow=classic;html=1;rounded=0;entryX=1;entryY=0.5;entryDx=0;entryDy=0;exitX=0;exitY=0.5;exitDx=0;exitDy=0;" parent="1" source="quBKCBcTdmR20H2L2Pyo-74" target="kY58WrOnhBQpwYX-1obf-62" edge="1">
          <mxGeometry width="50" height="50" relative="1" as="geometry">
            <mxPoint x="-342.05" y="671.1600000000001" as="sourcePoint" />
            <mxPoint x="-496.4137541239177" y="812.9925021023894" as="targetPoint" />
          </mxGeometry>
        </mxCell>
        <mxCell id="kY58WrOnhBQpwYX-1obf-174" value="String" style="rounded=0;whiteSpace=wrap;html=1;" parent="1" vertex="1">
          <mxGeometry x="-842.05" y="701.1600000000001" width="120" height="60" as="geometry" />
        </mxCell>
        <mxCell id="kY58WrOnhBQpwYX-1obf-175" value="" style="endArrow=classic;html=1;rounded=0;entryX=1.012;entryY=0.632;entryDx=0;entryDy=0;entryPerimeter=0;" parent="1" source="kY58WrOnhBQpwYX-1obf-171" target="kY58WrOnhBQpwYX-1obf-174" edge="1">
          <mxGeometry width="50" height="50" relative="1" as="geometry">
            <mxPoint x="-342.05" y="661.1600000000001" as="sourcePoint" />
            <mxPoint x="-292.05" y="611.1600000000001" as="targetPoint" />
          </mxGeometry>
        </mxCell>
        <mxCell id="quBKCBcTdmR20H2L2Pyo-10" value="has_vaccine_name" style="edgeLabel;html=1;align=center;verticalAlign=middle;resizable=0;points=[];" parent="kY58WrOnhBQpwYX-1obf-175" vertex="1" connectable="0">
          <mxGeometry x="-0.1664" relative="1" as="geometry">
            <mxPoint as="offset" />
          </mxGeometry>
        </mxCell>
        <mxCell id="kY58WrOnhBQpwYX-1obf-176" value="String" style="whiteSpace=wrap;html=1;" parent="1" vertex="1">
          <mxGeometry x="720" y="345" width="120" height="60" as="geometry" />
        </mxCell>
        <mxCell id="kY58WrOnhBQpwYX-1obf-178" value="String" style="whiteSpace=wrap;html=1;" parent="1" vertex="1">
          <mxGeometry x="515" y="120" width="120" height="60" as="geometry" />
        </mxCell>
        <mxCell id="kY58WrOnhBQpwYX-1obf-180" value="" style="endArrow=classic;html=1;rounded=0;entryX=0.5;entryY=1;entryDx=0;entryDy=0;exitX=0.5;exitY=0;exitDx=0;exitDy=0;" parent="1" source="kY58WrOnhBQpwYX-1obf-2" target="kY58WrOnhBQpwYX-1obf-178" edge="1">
          <mxGeometry width="50" height="50" relative="1" as="geometry">
            <mxPoint x="-110" y="100" as="sourcePoint" />
            <mxPoint x="-60" y="50" as="targetPoint" />
          </mxGeometry>
        </mxCell>
        <mxCell id="quBKCBcTdmR20H2L2Pyo-44" value="hasName" style="edgeLabel;html=1;align=center;verticalAlign=middle;resizable=0;points=[];fontStyle=1" parent="kY58WrOnhBQpwYX-1obf-180" vertex="1" connectable="0">
          <mxGeometry x="0.1706" y="-1" relative="1" as="geometry">
            <mxPoint x="-1" y="7" as="offset" />
          </mxGeometry>
        </mxCell>
        <mxCell id="cJ2sP0xSlK4HNfZoC45Z-6" value="" style="edgeStyle=orthogonalEdgeStyle;rounded=0;orthogonalLoop=1;jettySize=auto;html=1;fontSize=10;" parent="1" source="cJ2sP0xSlK4HNfZoC45Z-2" target="cJ2sP0xSlK4HNfZoC45Z-5" edge="1">
          <mxGeometry relative="1" as="geometry" />
        </mxCell>
        <mxCell id="P2cGOjsxd3BV5gJIbOgd-10" value="" style="edgeStyle=orthogonalEdgeStyle;rounded=0;orthogonalLoop=1;jettySize=auto;html=1;" parent="1" source="cJ2sP0xSlK4HNfZoC45Z-2" target="P2cGOjsxd3BV5gJIbOgd-9" edge="1">
          <mxGeometry relative="1" as="geometry" />
        </mxCell>
        <mxCell id="P2cGOjsxd3BV5gJIbOgd-11" value="has insurance name" style="edgeLabel;html=1;align=center;verticalAlign=middle;resizable=0;points=[];" parent="P2cGOjsxd3BV5gJIbOgd-10" vertex="1" connectable="0">
          <mxGeometry x="-0.1667" y="1" relative="1" as="geometry">
            <mxPoint x="1" as="offset" />
          </mxGeometry>
        </mxCell>
        <mxCell id="cJ2sP0xSlK4HNfZoC45Z-2" value="Coverby_insurance&lt;br style=&quot;border-color: var(--border-color);&quot;&gt;med" style="ellipse;whiteSpace=wrap;html=1;" parent="1" vertex="1">
          <mxGeometry x="-1045" y="230" width="140" height="80" as="geometry" />
        </mxCell>
        <mxCell id="cJ2sP0xSlK4HNfZoC45Z-3" value="" style="endArrow=classic;html=1;rounded=0;fontSize=10;entryX=1;entryY=1;entryDx=0;entryDy=0;exitX=0;exitY=0.5;exitDx=0;exitDy=0;" parent="1" source="kY58WrOnhBQpwYX-1obf-39" target="cJ2sP0xSlK4HNfZoC45Z-2" edge="1">
          <mxGeometry width="50" height="50" relative="1" as="geometry">
            <mxPoint x="-1063.284271247462" y="6.715728752537871" as="sourcePoint" />
            <mxPoint x="-980" y="-80" as="targetPoint" />
          </mxGeometry>
        </mxCell>
        <mxCell id="cJ2sP0xSlK4HNfZoC45Z-13" value="has_covered_with" style="edgeLabel;html=1;align=center;verticalAlign=middle;resizable=0;points=[];fontSize=10;" parent="cJ2sP0xSlK4HNfZoC45Z-3" vertex="1" connectable="0">
          <mxGeometry x="-0.2783" y="3" relative="1" as="geometry">
            <mxPoint x="-25" y="-19" as="offset" />
          </mxGeometry>
        </mxCell>
        <mxCell id="cJ2sP0xSlK4HNfZoC45Z-10" value="" style="edgeStyle=orthogonalEdgeStyle;rounded=0;orthogonalLoop=1;jettySize=auto;html=1;fontSize=10;" parent="1" source="cJ2sP0xSlK4HNfZoC45Z-5" target="cJ2sP0xSlK4HNfZoC45Z-9" edge="1">
          <mxGeometry relative="1" as="geometry" />
        </mxCell>
        <mxCell id="quBKCBcTdmR20H2L2Pyo-42" value="hasMedicineClass" style="edgeLabel;html=1;align=center;verticalAlign=middle;resizable=0;points=[];" parent="cJ2sP0xSlK4HNfZoC45Z-10" vertex="1" connectable="0">
          <mxGeometry x="0.0637" relative="1" as="geometry">
            <mxPoint as="offset" />
          </mxGeometry>
        </mxCell>
        <mxCell id="cJ2sP0xSlK4HNfZoC45Z-5" value="Medicine_classification" style="ellipse;whiteSpace=wrap;html=1;" parent="1" vertex="1">
          <mxGeometry x="-1355" y="230" width="140" height="80" as="geometry" />
        </mxCell>
        <mxCell id="cJ2sP0xSlK4HNfZoC45Z-9" value="String" style="rounded=0;whiteSpace=wrap;html=1;" parent="1" vertex="1">
          <mxGeometry x="-1635" y="240" width="120" height="60" as="geometry" />
        </mxCell>
        <mxCell id="P2cGOjsxd3BV5gJIbOgd-9" value="String" style="whiteSpace=wrap;html=1;" parent="1" vertex="1">
          <mxGeometry x="-1035" y="80" width="120" height="60" as="geometry" />
        </mxCell>
        <mxCell id="P2cGOjsxd3BV5gJIbOgd-18" value="Time" style="whiteSpace=wrap;html=1;" parent="1" vertex="1">
          <mxGeometry x="128" y="-480" width="120" height="60" as="geometry" />
        </mxCell>
        <mxCell id="quBKCBcTdmR20H2L2Pyo-40" value="" style="edgeStyle=orthogonalEdgeStyle;rounded=0;orthogonalLoop=1;jettySize=auto;html=1;" parent="1" source="quBKCBcTdmR20H2L2Pyo-36" target="quBKCBcTdmR20H2L2Pyo-39" edge="1">
          <mxGeometry relative="1" as="geometry" />
        </mxCell>
        <mxCell id="quBKCBcTdmR20H2L2Pyo-41" value="hasQuantity" style="edgeLabel;html=1;align=center;verticalAlign=middle;resizable=0;points=[];" parent="quBKCBcTdmR20H2L2Pyo-40" vertex="1" connectable="0">
          <mxGeometry x="0.125" relative="1" as="geometry">
            <mxPoint as="offset" />
          </mxGeometry>
        </mxCell>
        <mxCell id="quBKCBcTdmR20H2L2Pyo-36" value="Medicine_quantity" style="ellipse;whiteSpace=wrap;html=1;" parent="1" vertex="1">
          <mxGeometry x="-1245" y="340" width="140" height="80" as="geometry" />
        </mxCell>
        <mxCell id="quBKCBcTdmR20H2L2Pyo-38" value="" style="endArrow=classic;html=1;rounded=0;entryX=1;entryY=0.5;entryDx=0;entryDy=0;exitX=0;exitY=1;exitDx=0;exitDy=0;" parent="1" source="cJ2sP0xSlK4HNfZoC45Z-2" target="quBKCBcTdmR20H2L2Pyo-36" edge="1">
          <mxGeometry width="50" height="50" relative="1" as="geometry">
            <mxPoint x="-815" y="520" as="sourcePoint" />
            <mxPoint x="-765" y="470" as="targetPoint" />
          </mxGeometry>
        </mxCell>
        <mxCell id="quBKCBcTdmR20H2L2Pyo-39" value="Integer" style="rounded=0;whiteSpace=wrap;html=1;" parent="1" vertex="1">
          <mxGeometry x="-1495" y="350" width="120" height="60" as="geometry" />
        </mxCell>
        <mxCell id="quBKCBcTdmR20H2L2Pyo-49" value="Medicine_type" style="ellipse;whiteSpace=wrap;html=1;" parent="1" vertex="1">
          <mxGeometry x="-1315" y="110" width="140" height="80" as="geometry" />
        </mxCell>
        <mxCell id="quBKCBcTdmR20H2L2Pyo-59" value="" style="edgeStyle=orthogonalEdgeStyle;rounded=0;orthogonalLoop=1;jettySize=auto;html=1;" parent="1" source="quBKCBcTdmR20H2L2Pyo-50" target="quBKCBcTdmR20H2L2Pyo-58" edge="1">
          <mxGeometry relative="1" as="geometry" />
        </mxCell>
        <mxCell id="quBKCBcTdmR20H2L2Pyo-60" value="has_brand" style="edgeLabel;html=1;align=center;verticalAlign=middle;resizable=0;points=[];" parent="quBKCBcTdmR20H2L2Pyo-59" vertex="1" connectable="0">
          <mxGeometry x="-0.0477" y="-1" relative="1" as="geometry">
            <mxPoint as="offset" />
          </mxGeometry>
        </mxCell>
        <mxCell id="quBKCBcTdmR20H2L2Pyo-50" value="Generic_med" style="ellipse;whiteSpace=wrap;html=1;" parent="1" vertex="1">
          <mxGeometry x="-1550" y="20" width="140" height="80" as="geometry" />
        </mxCell>
        <mxCell id="quBKCBcTdmR20H2L2Pyo-57" value="has_brand" style="edgeStyle=orthogonalEdgeStyle;rounded=0;orthogonalLoop=1;jettySize=auto;html=1;" parent="1" source="quBKCBcTdmR20H2L2Pyo-51" target="quBKCBcTdmR20H2L2Pyo-56" edge="1">
          <mxGeometry relative="1" as="geometry" />
        </mxCell>
        <mxCell id="quBKCBcTdmR20H2L2Pyo-51" value="Patent_med" style="ellipse;whiteSpace=wrap;html=1;" parent="1" vertex="1">
          <mxGeometry x="-1535" y="120" width="140" height="80" as="geometry" />
        </mxCell>
        <mxCell id="quBKCBcTdmR20H2L2Pyo-52" value="" style="endArrow=classic;html=1;rounded=0;entryX=1;entryY=0.5;entryDx=0;entryDy=0;startArrow=none;exitX=0;exitY=0.5;exitDx=0;exitDy=0;" parent="1" source="quBKCBcTdmR20H2L2Pyo-93" edge="1">
          <mxGeometry width="50" height="50" relative="1" as="geometry">
            <mxPoint x="-1044" y="220" as="sourcePoint" />
            <mxPoint x="-1174" y="150" as="targetPoint" />
          </mxGeometry>
        </mxCell>
        <mxCell id="quBKCBcTdmR20H2L2Pyo-53" value="" style="endArrow=classic;html=1;rounded=0;entryX=1;entryY=0.5;entryDx=0;entryDy=0;exitX=0;exitY=0.5;exitDx=0;exitDy=0;startArrow=none;" parent="1" source="quBKCBcTdmR20H2L2Pyo-98" target="quBKCBcTdmR20H2L2Pyo-51" edge="1">
          <mxGeometry width="50" height="50" relative="1" as="geometry">
            <mxPoint x="-975" y="510" as="sourcePoint" />
            <mxPoint x="-925" y="460" as="targetPoint" />
          </mxGeometry>
        </mxCell>
        <mxCell id="quBKCBcTdmR20H2L2Pyo-54" value="" style="endArrow=classic;html=1;rounded=0;exitX=0;exitY=0;exitDx=0;exitDy=0;entryX=1;entryY=0.5;entryDx=0;entryDy=0;" parent="1" source="quBKCBcTdmR20H2L2Pyo-49" target="quBKCBcTdmR20H2L2Pyo-50" edge="1">
          <mxGeometry width="50" height="50" relative="1" as="geometry">
            <mxPoint x="-1305" y="160" as="sourcePoint" />
            <mxPoint x="-1335" y="90" as="targetPoint" />
          </mxGeometry>
        </mxCell>
        <mxCell id="quBKCBcTdmR20H2L2Pyo-56" value="String" style="whiteSpace=wrap;html=1;" parent="1" vertex="1">
          <mxGeometry x="-1745" y="130" width="120" height="60" as="geometry" />
        </mxCell>
        <mxCell id="quBKCBcTdmR20H2L2Pyo-58" value="String" style="whiteSpace=wrap;html=1;" parent="1" vertex="1">
          <mxGeometry x="-1760" y="30" width="120" height="60" as="geometry" />
        </mxCell>
        <mxCell id="quBKCBcTdmR20H2L2Pyo-71" value="" style="triangle;whiteSpace=wrap;html=1;shadow=0;strokeColor=#0f0f0f;fillColor=#ffffff;rotation=-90;" parent="1" vertex="1">
          <mxGeometry x="105" y="550" width="10" height="10" as="geometry" />
        </mxCell>
        <mxCell id="quBKCBcTdmR20H2L2Pyo-72" value="" style="triangle;whiteSpace=wrap;html=1;shadow=0;strokeColor=#0f0f0f;fillColor=#ffffff;rotation=-120;" parent="1" vertex="1">
          <mxGeometry x="132" y="541" width="10" height="10" as="geometry" />
        </mxCell>
        <mxCell id="quBKCBcTdmR20H2L2Pyo-73" value="" style="triangle;whiteSpace=wrap;html=1;shadow=0;strokeColor=#0f0f0f;fillColor=#ffffff;rotation=-30;" parent="1" vertex="1">
          <mxGeometry x="-332.05" y="681.1600000000001" width="10" height="10" as="geometry" />
        </mxCell>
        <mxCell id="quBKCBcTdmR20H2L2Pyo-74" value="" style="triangle;whiteSpace=wrap;html=1;shadow=0;strokeColor=#0f0f0f;fillColor=#ffffff;rotation=0;" parent="1" vertex="1">
          <mxGeometry x="-332.05" y="666.1600000000001" width="10" height="10" as="geometry" />
        </mxCell>
        <mxCell id="quBKCBcTdmR20H2L2Pyo-88" value="" style="triangle;whiteSpace=wrap;html=1;shadow=0;strokeColor=#0f0f0f;fillColor=#ffffff;rotation=60;" parent="1" vertex="1">
          <mxGeometry x="-245" y="-31" width="10" height="10" as="geometry" />
        </mxCell>
        <mxCell id="quBKCBcTdmR20H2L2Pyo-89" value="" style="triangle;whiteSpace=wrap;html=1;shadow=0;strokeColor=#0f0f0f;fillColor=#ffffff;rotation=75;" parent="1" vertex="1">
          <mxGeometry x="-230" y="-38" width="10" height="10" as="geometry" />
        </mxCell>
        <mxCell id="quBKCBcTdmR20H2L2Pyo-90" value="" style="triangle;whiteSpace=wrap;html=1;shadow=0;strokeColor=#0f0f0f;fillColor=#ffffff;rotation=90;" parent="1" vertex="1">
          <mxGeometry x="-214.05" y="-40" width="10" height="10" as="geometry" />
        </mxCell>
        <mxCell id="quBKCBcTdmR20H2L2Pyo-91" value="" style="triangle;whiteSpace=wrap;html=1;shadow=0;strokeColor=#0f0f0f;fillColor=#ffffff;rotation=105;" parent="1" vertex="1">
          <mxGeometry x="-197" y="-39" width="10" height="10" as="geometry" />
        </mxCell>
        <mxCell id="quBKCBcTdmR20H2L2Pyo-92" value="" style="triangle;whiteSpace=wrap;html=1;shadow=0;strokeColor=#0f0f0f;fillColor=#ffffff;rotation=0;direction=south;" parent="1" vertex="1">
          <mxGeometry x="-697.05" y="-90" width="10" height="10" as="geometry" />
        </mxCell>
        <mxCell id="quBKCBcTdmR20H2L2Pyo-93" value="" style="triangle;whiteSpace=wrap;html=1;shadow=0;strokeColor=#0f0f0f;fillColor=#ffffff;rotation=45;" parent="1" vertex="1">
          <mxGeometry x="-1034" y="233" width="10" height="10" as="geometry" />
        </mxCell>
        <mxCell id="quBKCBcTdmR20H2L2Pyo-95" value="" style="triangle;whiteSpace=wrap;html=1;shadow=0;strokeColor=#0f0f0f;fillColor=#ffffff;rotation=0;" parent="1" vertex="1">
          <mxGeometry x="-1055" y="265" width="10" height="10" as="geometry" />
        </mxCell>
        <mxCell id="quBKCBcTdmR20H2L2Pyo-96" value="" style="triangle;whiteSpace=wrap;html=1;shadow=0;strokeColor=#0f0f0f;fillColor=#ffffff;rotation=-45;" parent="1" vertex="1">
          <mxGeometry x="-1033" y="297" width="10" height="10" as="geometry" />
        </mxCell>
        <mxCell id="quBKCBcTdmR20H2L2Pyo-97" value="" style="triangle;whiteSpace=wrap;html=1;shadow=0;strokeColor=#0f0f0f;fillColor=#ffffff;rotation=30;" parent="1" vertex="1">
          <mxGeometry x="-1305" y="114" width="10" height="10" as="geometry" />
        </mxCell>
        <mxCell id="quBKCBcTdmR20H2L2Pyo-99" value="" style="endArrow=none;html=1;rounded=0;entryX=1;entryY=0.5;entryDx=0;entryDy=0;exitX=0;exitY=0.5;exitDx=0;exitDy=0;" parent="1" source="quBKCBcTdmR20H2L2Pyo-49" target="quBKCBcTdmR20H2L2Pyo-98" edge="1">
          <mxGeometry width="50" height="50" relative="1" as="geometry">
            <mxPoint x="-1315" y="150" as="sourcePoint" />
            <mxPoint x="-1395" y="160" as="targetPoint" />
          </mxGeometry>
        </mxCell>
        <mxCell id="quBKCBcTdmR20H2L2Pyo-98" value="" style="triangle;whiteSpace=wrap;html=1;shadow=0;strokeColor=#0f0f0f;fillColor=#ffffff;rotation=-10;" parent="1" vertex="1">
          <mxGeometry x="-1325" y="145" width="10" height="10" as="geometry" />
        </mxCell>
        <mxCell id="quBKCBcTdmR20H2L2Pyo-119" value="" style="endArrow=none;html=1;rounded=0;entryX=0.5;entryY=0;entryDx=0;entryDy=0;exitX=0.5;exitY=1;exitDx=0;exitDy=0;" parent="1" source="kY58WrOnhBQpwYX-1obf-13" edge="1">
          <mxGeometry width="50" height="50" relative="1" as="geometry">
            <mxPoint x="35" y="290" as="sourcePoint" />
            <mxPoint x="32.650768448035706" y="294.8550503583142" as="targetPoint" />
          </mxGeometry>
        </mxCell>
        <mxCell id="g-iiaFzWzwkfeZwgKF3h-20" value="" style="endArrow=none;html=1;rounded=0;entryX=0.5;entryY=0;entryDx=0;entryDy=0;" parent="1" target="quBKCBcTdmR20H2L2Pyo-70" edge="1">
          <mxGeometry width="50" height="50" relative="1" as="geometry">
            <mxPoint x="90" y="550" as="sourcePoint" />
            <mxPoint x="-11" y="730" as="targetPoint" />
          </mxGeometry>
        </mxCell>
        <mxCell id="quBKCBcTdmR20H2L2Pyo-70" value="" style="triangle;whiteSpace=wrap;html=1;shadow=0;strokeColor=#0f0f0f;fillColor=#ffffff;rotation=-60;" parent="1" vertex="1">
          <mxGeometry x="84" y="545" width="10" height="10" as="geometry" />
        </mxCell>
        <mxCell id="g-iiaFzWzwkfeZwgKF3h-21" value="" style="endArrow=none;html=1;rounded=0;" parent="1" source="kY58WrOnhBQpwYX-1obf-13" edge="1">
          <mxGeometry width="50" height="50" relative="1" as="geometry">
            <mxPoint x="8.201785481566276" y="287.35944115170355" as="sourcePoint" />
            <mxPoint x="7.142747821777448" y="289.9287281221191" as="targetPoint" />
          </mxGeometry>
        </mxCell>
        <mxCell id="g-iiaFzWzwkfeZwgKF3h-31" value="" style="endArrow=classic;html=1;rounded=0;entryX=0.694;entryY=0.979;entryDx=0;entryDy=0;entryPerimeter=0;startArrow=none;" parent="1" target="kY58WrOnhBQpwYX-1obf-160" edge="1">
          <mxGeometry width="50" height="50" relative="1" as="geometry">
            <mxPoint x="-287" y="628" as="sourcePoint" />
            <mxPoint x="-360" y="230" as="targetPoint" />
          </mxGeometry>
        </mxCell>
        <mxCell id="g-iiaFzWzwkfeZwgKF3h-86" value="hasPolicy" style="edgeLabel;html=1;align=center;verticalAlign=middle;resizable=0;points=[];" parent="g-iiaFzWzwkfeZwgKF3h-31" vertex="1" connectable="0">
          <mxGeometry x="-0.1869" y="2" relative="1" as="geometry">
            <mxPoint x="-54" y="-145" as="offset" />
          </mxGeometry>
        </mxCell>
        <mxCell id="g-iiaFzWzwkfeZwgKF3h-33" value="hasPolicy" style="endArrow=classic;html=1;rounded=0;entryX=1;entryY=0;entryDx=0;entryDy=0;exitX=0.042;exitY=0.808;exitDx=0;exitDy=0;exitPerimeter=0;" parent="1" source="kY58WrOnhBQpwYX-1obf-15" target="kY58WrOnhBQpwYX-1obf-160" edge="1">
          <mxGeometry width="50" height="50" relative="1" as="geometry">
            <mxPoint x="-259.0957602214453" y="37.86788218175525" as="sourcePoint" />
            <mxPoint x="-212.04640687119274" y="133.02427124746123" as="targetPoint" />
          </mxGeometry>
        </mxCell>
        <mxCell id="g-iiaFzWzwkfeZwgKF3h-39" value="" style="endArrow=classic;html=1;rounded=0;startArrow=none;entryX=1;entryY=0.5;entryDx=0;entryDy=0;exitX=0.017;exitY=0.614;exitDx=0;exitDy=0;exitPerimeter=0;" parent="1" source="kY58WrOnhBQpwYX-1obf-13" target="kY58WrOnhBQpwYX-1obf-17" edge="1">
          <mxGeometry width="50" height="50" relative="1" as="geometry">
            <mxPoint x="-50" y="265" as="sourcePoint" />
            <mxPoint x="-570" y="330" as="targetPoint" />
          </mxGeometry>
        </mxCell>
        <mxCell id="g-iiaFzWzwkfeZwgKF3h-89" value="consistOf" style="edgeLabel;html=1;align=center;verticalAlign=middle;resizable=0;points=[];" parent="g-iiaFzWzwkfeZwgKF3h-39" vertex="1" connectable="0">
          <mxGeometry x="0.1422" y="-2" relative="1" as="geometry">
            <mxPoint x="197" y="-83" as="offset" />
          </mxGeometry>
        </mxCell>
        <mxCell id="g-iiaFzWzwkfeZwgKF3h-43" value="" style="endArrow=classic;html=1;rounded=0;entryX=0.957;entryY=0.751;entryDx=0;entryDy=0;entryPerimeter=0;" parent="1" source="kY58WrOnhBQpwYX-1obf-43" target="kY58WrOnhBQpwYX-1obf-160" edge="1">
          <mxGeometry width="50" height="50" relative="1" as="geometry">
            <mxPoint x="60.66987298107779" y="492.5" as="sourcePoint" />
            <mxPoint x="-250" y="410" as="targetPoint" />
          </mxGeometry>
        </mxCell>
        <mxCell id="g-iiaFzWzwkfeZwgKF3h-87" value="hasPolicy" style="edgeLabel;html=1;align=center;verticalAlign=middle;resizable=0;points=[];" parent="g-iiaFzWzwkfeZwgKF3h-43" vertex="1" connectable="0">
          <mxGeometry x="-0.2146" y="1" relative="1" as="geometry">
            <mxPoint x="-208" y="-147" as="offset" />
          </mxGeometry>
        </mxCell>
        <mxCell id="g-iiaFzWzwkfeZwgKF3h-57" value="" style="edgeStyle=orthogonalEdgeStyle;rounded=0;orthogonalLoop=1;jettySize=auto;html=1;" parent="1" source="g-iiaFzWzwkfeZwgKF3h-45" target="g-iiaFzWzwkfeZwgKF3h-56" edge="1">
          <mxGeometry relative="1" as="geometry" />
        </mxCell>
        <mxCell id="g-iiaFzWzwkfeZwgKF3h-45" value="Cash" style="ellipse;whiteSpace=wrap;html=1;" parent="1" vertex="1">
          <mxGeometry x="-802.05" y="20" width="125" height="50" as="geometry" />
        </mxCell>
        <mxCell id="g-iiaFzWzwkfeZwgKF3h-59" value="" style="edgeStyle=orthogonalEdgeStyle;rounded=0;orthogonalLoop=1;jettySize=auto;html=1;" parent="1" source="g-iiaFzWzwkfeZwgKF3h-46" target="g-iiaFzWzwkfeZwgKF3h-58" edge="1">
          <mxGeometry relative="1" as="geometry" />
        </mxCell>
        <mxCell id="g-iiaFzWzwkfeZwgKF3h-46" value="Credit Card" style="ellipse;whiteSpace=wrap;html=1;" parent="1" vertex="1">
          <mxGeometry x="-754.55" y="120" width="125" height="50" as="geometry" />
        </mxCell>
        <mxCell id="g-iiaFzWzwkfeZwgKF3h-61" value="" style="edgeStyle=orthogonalEdgeStyle;rounded=0;orthogonalLoop=1;jettySize=auto;html=1;" parent="1" source="g-iiaFzWzwkfeZwgKF3h-47" target="g-iiaFzWzwkfeZwgKF3h-60" edge="1">
          <mxGeometry relative="1" as="geometry" />
        </mxCell>
        <mxCell id="g-iiaFzWzwkfeZwgKF3h-47" value="Debit Card" style="ellipse;whiteSpace=wrap;html=1;" parent="1" vertex="1">
          <mxGeometry x="-640" y="209" width="125" height="50" as="geometry" />
        </mxCell>
        <mxCell id="g-iiaFzWzwkfeZwgKF3h-48" value="" style="triangle;whiteSpace=wrap;html=1;shadow=0;strokeColor=#0f0f0f;fillColor=#ffffff;rotation=30;" parent="1" vertex="1">
          <mxGeometry x="-527" y="94" width="10" height="10" as="geometry" />
        </mxCell>
        <mxCell id="g-iiaFzWzwkfeZwgKF3h-49" value="" style="triangle;whiteSpace=wrap;html=1;shadow=0;strokeColor=#0f0f0f;fillColor=#ffffff;rotation=30;" parent="1" vertex="1">
          <mxGeometry x="-540" y="105" width="10" height="10" as="geometry" />
        </mxCell>
        <mxCell id="g-iiaFzWzwkfeZwgKF3h-50" value="" style="triangle;whiteSpace=wrap;html=1;shadow=0;strokeColor=#0f0f0f;fillColor=#ffffff;rotation=0;" parent="1" vertex="1">
          <mxGeometry x="-544.05" y="136" width="10" height="10" as="geometry" />
        </mxCell>
        <mxCell id="g-iiaFzWzwkfeZwgKF3h-52" value="" style="endArrow=classic;html=1;rounded=0;entryX=1.018;entryY=0.534;entryDx=0;entryDy=0;entryPerimeter=0;exitX=0;exitY=0.5;exitDx=0;exitDy=0;" parent="1" source="g-iiaFzWzwkfeZwgKF3h-50" target="g-iiaFzWzwkfeZwgKF3h-46" edge="1">
          <mxGeometry width="50" height="50" relative="1" as="geometry">
            <mxPoint x="-570" y="160" as="sourcePoint" />
            <mxPoint x="-520" y="110" as="targetPoint" />
          </mxGeometry>
        </mxCell>
        <mxCell id="g-iiaFzWzwkfeZwgKF3h-51" value="" style="triangle;whiteSpace=wrap;html=1;shadow=0;strokeColor=#0f0f0f;fillColor=#ffffff;rotation=-45;" parent="1" vertex="1">
          <mxGeometry x="-518" y="164" width="10" height="10" as="geometry" />
        </mxCell>
        <mxCell id="g-iiaFzWzwkfeZwgKF3h-53" value="" style="endArrow=classic;html=1;rounded=0;entryX=1.004;entryY=0.588;entryDx=0;entryDy=0;entryPerimeter=0;exitX=0;exitY=0.5;exitDx=0;exitDy=0;" parent="1" source="g-iiaFzWzwkfeZwgKF3h-49" target="g-iiaFzWzwkfeZwgKF3h-45" edge="1">
          <mxGeometry width="50" height="50" relative="1" as="geometry">
            <mxPoint x="-534.0500000000002" y="151" as="sourcePoint" />
            <mxPoint x="-617.3000000000002" y="156.69999999999982" as="targetPoint" />
          </mxGeometry>
        </mxCell>
        <mxCell id="g-iiaFzWzwkfeZwgKF3h-54" value="" style="endArrow=classic;html=1;rounded=0;exitX=0;exitY=0.5;exitDx=0;exitDy=0;" parent="1" source="g-iiaFzWzwkfeZwgKF3h-51" target="g-iiaFzWzwkfeZwgKF3h-47" edge="1">
          <mxGeometry width="50" height="50" relative="1" as="geometry">
            <mxPoint x="-529.3301270189222" y="117.5" as="sourcePoint" />
            <mxPoint x="-666.5500000000002" y="59.399999999999864" as="targetPoint" />
          </mxGeometry>
        </mxCell>
        <mxCell id="g-iiaFzWzwkfeZwgKF3h-56" value="Currency" style="rounded=0;whiteSpace=wrap;html=1;" parent="1" vertex="1">
          <mxGeometry x="-937" y="35" width="87" height="20" as="geometry" />
        </mxCell>
        <mxCell id="g-iiaFzWzwkfeZwgKF3h-58" value="Currency" style="rounded=0;whiteSpace=wrap;html=1;" parent="1" vertex="1">
          <mxGeometry x="-894.05" y="136" width="92" height="20" as="geometry" />
        </mxCell>
        <mxCell id="g-iiaFzWzwkfeZwgKF3h-60" value="Currency" style="rounded=0;whiteSpace=wrap;html=1;" parent="1" vertex="1">
          <mxGeometry x="-789.05" y="224" width="92" height="20" as="geometry" />
        </mxCell>
        <mxCell id="g-iiaFzWzwkfeZwgKF3h-62" value="Timearrangement" style="ellipse;whiteSpace=wrap;html=1;" parent="1" vertex="1">
          <mxGeometry x="395" y="-180" width="120" height="60" as="geometry" />
        </mxCell>
        <mxCell id="g-iiaFzWzwkfeZwgKF3h-63" value="" style="endArrow=classic;html=1;rounded=0;startArrow=none;" parent="1" source="kY58WrOnhBQpwYX-1obf-32" target="g-iiaFzWzwkfeZwgKF3h-62" edge="1">
          <mxGeometry width="50" height="50" relative="1" as="geometry">
            <mxPoint x="127.82962913144547" y="-61.29409522551259" as="sourcePoint" />
            <mxPoint x="284" y="-150.39999999999986" as="targetPoint" />
          </mxGeometry>
        </mxCell>
        <mxCell id="g-iiaFzWzwkfeZwgKF3h-93" value="has_time_arrangement" style="edgeLabel;html=1;align=center;verticalAlign=middle;resizable=0;points=[];" parent="g-iiaFzWzwkfeZwgKF3h-63" vertex="1" connectable="0">
          <mxGeometry x="-0.3372" y="-1" relative="1" as="geometry">
            <mxPoint as="offset" />
          </mxGeometry>
        </mxCell>
        <mxCell id="g-iiaFzWzwkfeZwgKF3h-77" value="" style="edgeStyle=orthogonalEdgeStyle;rounded=0;orthogonalLoop=1;jettySize=auto;html=1;" parent="1" source="g-iiaFzWzwkfeZwgKF3h-66" target="P2cGOjsxd3BV5gJIbOgd-18" edge="1">
          <mxGeometry relative="1" as="geometry" />
        </mxCell>
        <mxCell id="g-iiaFzWzwkfeZwgKF3h-66" value="Morning" style="ellipse;whiteSpace=wrap;html=1;" parent="1" vertex="1">
          <mxGeometry x="128" y="-370" width="120" height="60" as="geometry" />
        </mxCell>
        <mxCell id="g-iiaFzWzwkfeZwgKF3h-78" value="" style="edgeStyle=orthogonalEdgeStyle;rounded=0;orthogonalLoop=1;jettySize=auto;html=1;" parent="1" source="g-iiaFzWzwkfeZwgKF3h-67" target="g-iiaFzWzwkfeZwgKF3h-74" edge="1">
          <mxGeometry relative="1" as="geometry" />
        </mxCell>
        <mxCell id="g-iiaFzWzwkfeZwgKF3h-67" value="Noon" style="ellipse;whiteSpace=wrap;html=1;" parent="1" vertex="1">
          <mxGeometry x="300" y="-370" width="120" height="60" as="geometry" />
        </mxCell>
        <mxCell id="g-iiaFzWzwkfeZwgKF3h-84" value="" style="edgeStyle=orthogonalEdgeStyle;rounded=0;orthogonalLoop=1;jettySize=auto;html=1;" parent="1" source="g-iiaFzWzwkfeZwgKF3h-68" target="g-iiaFzWzwkfeZwgKF3h-75" edge="1">
          <mxGeometry relative="1" as="geometry" />
        </mxCell>
        <mxCell id="g-iiaFzWzwkfeZwgKF3h-68" value="Afternoon" style="ellipse;whiteSpace=wrap;html=1;" parent="1" vertex="1">
          <mxGeometry x="450" y="-370" width="120" height="60" as="geometry" />
        </mxCell>
        <mxCell id="g-iiaFzWzwkfeZwgKF3h-85" value="" style="edgeStyle=orthogonalEdgeStyle;rounded=0;orthogonalLoop=1;jettySize=auto;html=1;" parent="1" source="g-iiaFzWzwkfeZwgKF3h-69" target="g-iiaFzWzwkfeZwgKF3h-76" edge="1">
          <mxGeometry relative="1" as="geometry" />
        </mxCell>
        <mxCell id="g-iiaFzWzwkfeZwgKF3h-69" value="All Day" style="ellipse;whiteSpace=wrap;html=1;" parent="1" vertex="1">
          <mxGeometry x="635" y="-370" width="120" height="60" as="geometry" />
        </mxCell>
        <mxCell id="g-iiaFzWzwkfeZwgKF3h-70" value="" style="endArrow=classic;html=1;rounded=0;entryX=1;entryY=1;entryDx=0;entryDy=0;exitX=0;exitY=0;exitDx=0;exitDy=0;" parent="1" source="g-iiaFzWzwkfeZwgKF3h-62" target="g-iiaFzWzwkfeZwgKF3h-66" edge="1">
          <mxGeometry width="50" height="50" relative="1" as="geometry">
            <mxPoint x="100" y="40" as="sourcePoint" />
            <mxPoint x="150" y="-10" as="targetPoint" />
          </mxGeometry>
        </mxCell>
        <mxCell id="g-iiaFzWzwkfeZwgKF3h-71" value="" style="endArrow=classic;html=1;rounded=0;entryX=0.5;entryY=1;entryDx=0;entryDy=0;exitX=0;exitY=0.5;exitDx=0;exitDy=0;" parent="1" source="g-iiaFzWzwkfeZwgKF3h-82" target="g-iiaFzWzwkfeZwgKF3h-67" edge="1">
          <mxGeometry width="50" height="50" relative="1" as="geometry">
            <mxPoint x="422" y="-170" as="sourcePoint" />
            <mxPoint x="241.07402360706328" y="-309.1156249177875" as="targetPoint" />
          </mxGeometry>
        </mxCell>
        <mxCell id="g-iiaFzWzwkfeZwgKF3h-72" value="" style="endArrow=classic;html=1;rounded=0;entryX=0.5;entryY=1;entryDx=0;entryDy=0;" parent="1" target="g-iiaFzWzwkfeZwgKF3h-68" edge="1">
          <mxGeometry width="50" height="50" relative="1" as="geometry">
            <mxPoint x="470" y="-190" as="sourcePoint" />
            <mxPoint x="370" y="-300" as="targetPoint" />
          </mxGeometry>
        </mxCell>
        <mxCell id="g-iiaFzWzwkfeZwgKF3h-73" value="" style="endArrow=classic;html=1;rounded=0;entryX=0.397;entryY=1.058;entryDx=0;entryDy=0;entryPerimeter=0;exitX=1;exitY=0;exitDx=0;exitDy=0;" parent="1" source="g-iiaFzWzwkfeZwgKF3h-62" target="g-iiaFzWzwkfeZwgKF3h-69" edge="1">
          <mxGeometry width="50" height="50" relative="1" as="geometry">
            <mxPoint x="470" y="-190" as="sourcePoint" />
            <mxPoint x="540" y="-300" as="targetPoint" />
          </mxGeometry>
        </mxCell>
        <mxCell id="g-iiaFzWzwkfeZwgKF3h-74" value="Time" style="whiteSpace=wrap;html=1;" parent="1" vertex="1">
          <mxGeometry x="300" y="-480" width="120" height="60" as="geometry" />
        </mxCell>
        <mxCell id="g-iiaFzWzwkfeZwgKF3h-75" value="Time" style="whiteSpace=wrap;html=1;" parent="1" vertex="1">
          <mxGeometry x="450" y="-480" width="120" height="60" as="geometry" />
        </mxCell>
        <mxCell id="g-iiaFzWzwkfeZwgKF3h-76" value="Time" style="whiteSpace=wrap;html=1;" parent="1" vertex="1">
          <mxGeometry x="635" y="-480" width="120" height="60" as="geometry" />
        </mxCell>
        <mxCell id="g-iiaFzWzwkfeZwgKF3h-79" value="" style="triangle;whiteSpace=wrap;html=1;shadow=0;strokeColor=#0f0f0f;fillColor=#ffffff;rotation=-225;" parent="1" vertex="1">
          <mxGeometry x="496" y="-179" width="10" height="10" as="geometry" />
        </mxCell>
        <mxCell id="g-iiaFzWzwkfeZwgKF3h-81" value="" style="triangle;whiteSpace=wrap;html=1;shadow=0;strokeColor=#0f0f0f;fillColor=#ffffff;rotation=105;" parent="1" vertex="1">
          <mxGeometry x="464" y="-190" width="10" height="10" as="geometry" />
        </mxCell>
        <mxCell id="g-iiaFzWzwkfeZwgKF3h-82" value="" style="triangle;whiteSpace=wrap;html=1;shadow=0;strokeColor=#0f0f0f;fillColor=#ffffff;rotation=70;" parent="1" vertex="1">
          <mxGeometry x="430" y="-190" width="10" height="10" as="geometry" />
        </mxCell>
        <mxCell id="g-iiaFzWzwkfeZwgKF3h-83" value="" style="triangle;whiteSpace=wrap;html=1;shadow=0;strokeColor=#0f0f0f;fillColor=#ffffff;rotation=40;" parent="1" vertex="1">
          <mxGeometry x="403" y="-180" width="10" height="10" as="geometry" />
        </mxCell>
        <mxCell id="g-iiaFzWzwkfeZwgKF3h-92" value="hasPollicy" style="endArrow=classic;html=1;rounded=0;entryX=0.431;entryY=1.008;entryDx=0;entryDy=0;entryPerimeter=0;" parent="1" source="kY58WrOnhBQpwYX-1obf-17" target="kY58WrOnhBQpwYX-1obf-160" edge="1">
          <mxGeometry x="0.0786" y="-16" width="50" height="50" relative="1" as="geometry">
            <mxPoint x="-550" y="390" as="sourcePoint" />
            <mxPoint x="-500" y="340" as="targetPoint" />
            <mxPoint as="offset" />
          </mxGeometry>
        </mxCell>
        <mxCell id="g-iiaFzWzwkfeZwgKF3h-94" value="Integer" style="whiteSpace=wrap;html=1;" parent="1" vertex="1">
          <mxGeometry x="248" y="495" width="110" height="30" as="geometry" />
        </mxCell>
        <mxCell id="HLl5qWVt4bRKjdiENAfM-6" value="doctors&#39;s name" style="edgeStyle=orthogonalEdgeStyle;rounded=0;orthogonalLoop=1;jettySize=auto;html=1;" parent="1" source="HLl5qWVt4bRKjdiENAfM-2" target="HLl5qWVt4bRKjdiENAfM-5" edge="1">
          <mxGeometry relative="1" as="geometry" />
        </mxCell>
        <mxCell id="HLl5qWVt4bRKjdiENAfM-2" value="Pulmologist" style="ellipse;whiteSpace=wrap;html=1;" parent="1" vertex="1">
          <mxGeometry x="39.999999999999986" y="-570" width="110" height="80" as="geometry" />
        </mxCell>
        <mxCell id="HLl5qWVt4bRKjdiENAfM-3" value="" style="endArrow=classic;html=1;rounded=0;entryX=0;entryY=1;entryDx=0;entryDy=0;exitX=0;exitY=0.5;exitDx=0;exitDy=0;" parent="1" target="HLl5qWVt4bRKjdiENAfM-2" edge="1">
          <mxGeometry width="50" height="50" relative="1" as="geometry">
            <mxPoint x="-180.7059047744874" y="-28.829629131445245" as="sourcePoint" />
            <mxPoint x="-25" y="-480" as="targetPoint" />
          </mxGeometry>
        </mxCell>
        <mxCell id="HLl5qWVt4bRKjdiENAfM-4" value="" style="triangle;whiteSpace=wrap;html=1;shadow=0;strokeColor=#0f0f0f;fillColor=#ffffff;rotation=105;" parent="1" vertex="1">
          <mxGeometry x="-185" y="-34" width="10" height="10" as="geometry" />
        </mxCell>
        <mxCell id="HLl5qWVt4bRKjdiENAfM-5" value="Pulmologist_name" style="rounded=0;whiteSpace=wrap;html=1;" parent="1" vertex="1">
          <mxGeometry x="39.999999999999986" y="-690" width="120" height="60" as="geometry" />
        </mxCell>
      </root>
    </mxGraphModel>
  </diagram>
  <diagram id="AR1fB5WGtj2e4Ziq1Tfd" name="v2">
    <mxGraphModel dx="3540" dy="2278" grid="1" gridSize="10" guides="1" tooltips="1" connect="1" arrows="1" fold="1" page="1" pageScale="1" pageWidth="1100" pageHeight="850" math="0" shadow="0">
      <root>
        <mxCell id="0" />
        <mxCell id="1" parent="0" />
        <mxCell id="-l0eyrN0Ik04eulUpfAW-1" value="State" style="ellipse;whiteSpace=wrap;html=1;fillColor=#fff2cc;strokeColor=#d6b656;" vertex="1" parent="1">
          <mxGeometry x="900" y="370" width="120" height="80" as="geometry" />
        </mxCell>
        <mxCell id="-l0eyrN0Ik04eulUpfAW-5" style="edgeStyle=orthogonalEdgeStyle;rounded=0;orthogonalLoop=1;jettySize=auto;html=1;entryX=0;entryY=0.5;entryDx=0;entryDy=0;startArrow=classic;startFill=1;" edge="1" parent="1" source="-l0eyrN0Ik04eulUpfAW-2" target="-l0eyrN0Ik04eulUpfAW-1">
          <mxGeometry relative="1" as="geometry" />
        </mxCell>
        <mxCell id="-l0eyrN0Ik04eulUpfAW-6" value="located in/location of" style="edgeLabel;html=1;align=center;verticalAlign=middle;resizable=0;points=[];" vertex="1" connectable="0" parent="-l0eyrN0Ik04eulUpfAW-5">
          <mxGeometry x="-0.2923" y="1" relative="1" as="geometry">
            <mxPoint x="24" as="offset" />
          </mxGeometry>
        </mxCell>
        <mxCell id="-l0eyrN0Ik04eulUpfAW-9" style="edgeStyle=orthogonalEdgeStyle;rounded=0;orthogonalLoop=1;jettySize=auto;html=1;entryX=0;entryY=0.5;entryDx=0;entryDy=0;exitX=0.5;exitY=0;exitDx=0;exitDy=0;endArrow=block;endFill=0;" edge="1" parent="1" source="-l0eyrN0Ik04eulUpfAW-2" target="-l0eyrN0Ik04eulUpfAW-3">
          <mxGeometry relative="1" as="geometry" />
        </mxCell>
        <mxCell id="-l0eyrN0Ik04eulUpfAW-2" value="Public Hospital" style="ellipse;whiteSpace=wrap;html=1;" vertex="1" parent="1">
          <mxGeometry x="600" y="370" width="120" height="80" as="geometry" />
        </mxCell>
        <mxCell id="-l0eyrN0Ik04eulUpfAW-11" style="edgeStyle=orthogonalEdgeStyle;rounded=0;orthogonalLoop=1;jettySize=auto;html=1;entryX=0.5;entryY=1;entryDx=0;entryDy=0;endArrow=block;endFill=0;" edge="1" parent="1" source="-l0eyrN0Ik04eulUpfAW-3" target="-l0eyrN0Ik04eulUpfAW-10">
          <mxGeometry relative="1" as="geometry" />
        </mxCell>
        <mxCell id="-l0eyrN0Ik04eulUpfAW-3" value="Hospital" style="ellipse;whiteSpace=wrap;html=1;" vertex="1" parent="1">
          <mxGeometry x="750" y="230" width="120" height="80" as="geometry" />
        </mxCell>
        <mxCell id="-l0eyrN0Ik04eulUpfAW-10" value="Organization" style="ellipse;whiteSpace=wrap;html=1;" vertex="1" parent="1">
          <mxGeometry x="750" y="80" width="120" height="80" as="geometry" />
        </mxCell>
        <mxCell id="-l0eyrN0Ik04eulUpfAW-13" style="edgeStyle=orthogonalEdgeStyle;rounded=0;orthogonalLoop=1;jettySize=auto;html=1;entryX=0;entryY=0.5;entryDx=0;entryDy=0;endArrow=none;endFill=0;startArrow=classic;startFill=1;" edge="1" parent="1" source="-l0eyrN0Ik04eulUpfAW-12" target="-l0eyrN0Ik04eulUpfAW-2">
          <mxGeometry relative="1" as="geometry" />
        </mxCell>
        <mxCell id="-l0eyrN0Ik04eulUpfAW-14" value="contains" style="edgeLabel;html=1;align=center;verticalAlign=middle;resizable=0;points=[];" vertex="1" connectable="0" parent="-l0eyrN0Ik04eulUpfAW-13">
          <mxGeometry x="-0.025" relative="1" as="geometry">
            <mxPoint x="5" y="-1" as="offset" />
          </mxGeometry>
        </mxCell>
        <mxCell id="-l0eyrN0Ik04eulUpfAW-16" style="edgeStyle=orthogonalEdgeStyle;rounded=0;orthogonalLoop=1;jettySize=auto;html=1;entryX=0.5;entryY=1;entryDx=0;entryDy=0;endArrow=block;endFill=0;exitX=1;exitY=0;exitDx=0;exitDy=0;" edge="1" parent="1" source="-l0eyrN0Ik04eulUpfAW-12" target="-l0eyrN0Ik04eulUpfAW-15">
          <mxGeometry relative="1" as="geometry" />
        </mxCell>
        <mxCell id="-l0eyrN0Ik04eulUpfAW-18" style="edgeStyle=orthogonalEdgeStyle;rounded=0;orthogonalLoop=1;jettySize=auto;html=1;entryX=0.5;entryY=0;entryDx=0;entryDy=0;" edge="1" parent="1" source="-l0eyrN0Ik04eulUpfAW-12" target="-l0eyrN0Ik04eulUpfAW-17">
          <mxGeometry relative="1" as="geometry" />
        </mxCell>
        <mxCell id="-l0eyrN0Ik04eulUpfAW-19" value="hasResource" style="edgeLabel;html=1;align=center;verticalAlign=middle;resizable=0;points=[];" vertex="1" connectable="0" parent="-l0eyrN0Ik04eulUpfAW-18">
          <mxGeometry x="-0.0857" relative="1" as="geometry">
            <mxPoint y="-12" as="offset" />
          </mxGeometry>
        </mxCell>
        <mxCell id="-l0eyrN0Ik04eulUpfAW-22" style="edgeStyle=orthogonalEdgeStyle;rounded=0;orthogonalLoop=1;jettySize=auto;html=1;exitX=0;exitY=1;exitDx=0;exitDy=0;entryX=0.5;entryY=0;entryDx=0;entryDy=0;" edge="1" parent="1" source="-l0eyrN0Ik04eulUpfAW-12" target="-l0eyrN0Ik04eulUpfAW-20">
          <mxGeometry relative="1" as="geometry" />
        </mxCell>
        <mxCell id="-l0eyrN0Ik04eulUpfAW-25" value="provide service" style="edgeLabel;html=1;align=center;verticalAlign=middle;resizable=0;points=[];" vertex="1" connectable="0" parent="-l0eyrN0Ik04eulUpfAW-22">
          <mxGeometry x="-0.2186" relative="1" as="geometry">
            <mxPoint as="offset" />
          </mxGeometry>
        </mxCell>
        <mxCell id="-l0eyrN0Ik04eulUpfAW-23" style="edgeStyle=orthogonalEdgeStyle;rounded=0;orthogonalLoop=1;jettySize=auto;html=1;entryX=0.5;entryY=0;entryDx=0;entryDy=0;" edge="1" parent="1" source="-l0eyrN0Ik04eulUpfAW-12" target="-l0eyrN0Ik04eulUpfAW-21">
          <mxGeometry relative="1" as="geometry">
            <Array as="points">
              <mxPoint x="150" y="410" />
            </Array>
          </mxGeometry>
        </mxCell>
        <mxCell id="-l0eyrN0Ik04eulUpfAW-24" value="provide service" style="edgeLabel;html=1;align=center;verticalAlign=middle;resizable=0;points=[];" vertex="1" connectable="0" parent="-l0eyrN0Ik04eulUpfAW-23">
          <mxGeometry x="0.0308" y="-1" relative="1" as="geometry">
            <mxPoint as="offset" />
          </mxGeometry>
        </mxCell>
        <mxCell id="-l0eyrN0Ik04eulUpfAW-28" style="edgeStyle=orthogonalEdgeStyle;rounded=0;orthogonalLoop=1;jettySize=auto;html=1;entryX=0.5;entryY=1;entryDx=0;entryDy=0;" edge="1" parent="1" source="-l0eyrN0Ik04eulUpfAW-12" target="-l0eyrN0Ik04eulUpfAW-27">
          <mxGeometry relative="1" as="geometry">
            <Array as="points">
              <mxPoint x="450" y="330" />
              <mxPoint x="320" y="330" />
            </Array>
          </mxGeometry>
        </mxCell>
        <mxCell id="-l0eyrN0Ik04eulUpfAW-29" value="hasMember" style="edgeLabel;html=1;align=center;verticalAlign=middle;resizable=0;points=[];" vertex="1" connectable="0" parent="-l0eyrN0Ik04eulUpfAW-28">
          <mxGeometry x="0.15" relative="1" as="geometry">
            <mxPoint as="offset" />
          </mxGeometry>
        </mxCell>
        <mxCell id="-l0eyrN0Ik04eulUpfAW-12" value="Hospital Ward" style="ellipse;whiteSpace=wrap;html=1;" vertex="1" parent="1">
          <mxGeometry x="390" y="370" width="120" height="80" as="geometry" />
        </mxCell>
        <mxCell id="-l0eyrN0Ik04eulUpfAW-15" value="Division" style="ellipse;whiteSpace=wrap;html=1;" vertex="1" parent="1">
          <mxGeometry x="530" y="230" width="120" height="80" as="geometry" />
        </mxCell>
        <mxCell id="-l0eyrN0Ik04eulUpfAW-31" style="edgeStyle=orthogonalEdgeStyle;rounded=0;orthogonalLoop=1;jettySize=auto;html=1;entryX=0;entryY=0.5;entryDx=0;entryDy=0;endArrow=none;endFill=0;exitX=0.958;exitY=0.3;exitDx=0;exitDy=0;exitPerimeter=0;" edge="1" parent="1" source="-l0eyrN0Ik04eulUpfAW-17" target="-l0eyrN0Ik04eulUpfAW-30">
          <mxGeometry relative="1" as="geometry" />
        </mxCell>
        <mxCell id="-l0eyrN0Ik04eulUpfAW-32" style="edgeStyle=orthogonalEdgeStyle;rounded=0;orthogonalLoop=1;jettySize=auto;html=1;exitX=1;exitY=0;exitDx=0;exitDy=0;entryX=1;entryY=1;entryDx=0;entryDy=0;" edge="1" parent="1" source="-l0eyrN0Ik04eulUpfAW-17" target="-l0eyrN0Ik04eulUpfAW-12">
          <mxGeometry relative="1" as="geometry" />
        </mxCell>
        <mxCell id="-l0eyrN0Ik04eulUpfAW-33" value="locatedIn" style="edgeLabel;html=1;align=center;verticalAlign=middle;resizable=0;points=[];" vertex="1" connectable="0" parent="-l0eyrN0Ik04eulUpfAW-32">
          <mxGeometry x="-0.3425" y="-1" relative="1" as="geometry">
            <mxPoint as="offset" />
          </mxGeometry>
        </mxCell>
        <mxCell id="-l0eyrN0Ik04eulUpfAW-42" style="edgeStyle=orthogonalEdgeStyle;rounded=0;orthogonalLoop=1;jettySize=auto;html=1;entryX=0;entryY=0.5;entryDx=0;entryDy=0;" edge="1" parent="1" source="-l0eyrN0Ik04eulUpfAW-17" target="-l0eyrN0Ik04eulUpfAW-41">
          <mxGeometry relative="1" as="geometry" />
        </mxCell>
        <mxCell id="-l0eyrN0Ik04eulUpfAW-43" value="requires payment&amp;nbsp;&lt;br&gt;transaction" style="edgeLabel;html=1;align=center;verticalAlign=middle;resizable=0;points=[];" vertex="1" connectable="0" parent="-l0eyrN0Ik04eulUpfAW-42">
          <mxGeometry x="-0.0273" y="1" relative="1" as="geometry">
            <mxPoint as="offset" />
          </mxGeometry>
        </mxCell>
        <mxCell id="-l0eyrN0Ik04eulUpfAW-59" style="edgeStyle=orthogonalEdgeStyle;rounded=0;orthogonalLoop=1;jettySize=auto;html=1;exitX=1;exitY=1;exitDx=0;exitDy=0;entryX=0;entryY=0.5;entryDx=0;entryDy=0;endArrow=none;endFill=0;" edge="1" parent="1" source="-l0eyrN0Ik04eulUpfAW-17" target="-l0eyrN0Ik04eulUpfAW-58">
          <mxGeometry relative="1" as="geometry">
            <Array as="points">
              <mxPoint x="500" y="588" />
              <mxPoint x="500" y="665" />
            </Array>
          </mxGeometry>
        </mxCell>
        <mxCell id="-l0eyrN0Ik04eulUpfAW-17" value="HospitalBed" style="ellipse;whiteSpace=wrap;html=1;" vertex="1" parent="1">
          <mxGeometry x="390" y="520" width="120" height="80" as="geometry" />
        </mxCell>
        <mxCell id="-l0eyrN0Ik04eulUpfAW-103" style="edgeStyle=orthogonalEdgeStyle;rounded=0;orthogonalLoop=1;jettySize=auto;html=1;exitX=1;exitY=1;exitDx=0;exitDy=0;endArrow=classic;endFill=1;" edge="1" parent="1" source="-l0eyrN0Ik04eulUpfAW-20" target="-l0eyrN0Ik04eulUpfAW-102">
          <mxGeometry relative="1" as="geometry" />
        </mxCell>
        <mxCell id="-l0eyrN0Ik04eulUpfAW-104" value="hasResource" style="edgeLabel;html=1;align=center;verticalAlign=middle;resizable=0;points=[];" vertex="1" connectable="0" parent="-l0eyrN0Ik04eulUpfAW-103">
          <mxGeometry x="-0.2088" y="1" relative="1" as="geometry">
            <mxPoint as="offset" />
          </mxGeometry>
        </mxCell>
        <mxCell id="-l0eyrN0Ik04eulUpfAW-117" style="edgeStyle=orthogonalEdgeStyle;rounded=0;orthogonalLoop=1;jettySize=auto;html=1;entryX=0.5;entryY=1;entryDx=0;entryDy=0;endArrow=block;endFill=0;" edge="1" parent="1">
          <mxGeometry relative="1" as="geometry">
            <mxPoint x="199" y="560.0000000000005" as="sourcePoint" />
            <mxPoint x="149" y="509.99999999999955" as="targetPoint" />
            <Array as="points">
              <mxPoint x="149" y="560" />
            </Array>
          </mxGeometry>
        </mxCell>
        <mxCell id="-l0eyrN0Ik04eulUpfAW-20" value="Vaccine Service" style="ellipse;whiteSpace=wrap;html=1;" vertex="1" parent="1">
          <mxGeometry x="200" y="520" width="120" height="80" as="geometry" />
        </mxCell>
        <mxCell id="-l0eyrN0Ik04eulUpfAW-51" style="edgeStyle=orthogonalEdgeStyle;rounded=0;orthogonalLoop=1;jettySize=auto;html=1;exitX=0;exitY=0;exitDx=0;exitDy=0;entryX=1;entryY=0.5;entryDx=0;entryDy=0;" edge="1" parent="1" source="-l0eyrN0Ik04eulUpfAW-21" target="-l0eyrN0Ik04eulUpfAW-50">
          <mxGeometry relative="1" as="geometry" />
        </mxCell>
        <mxCell id="-l0eyrN0Ik04eulUpfAW-52" value="requires payment&lt;br&gt;transaction" style="edgeLabel;html=1;align=center;verticalAlign=middle;resizable=0;points=[];" vertex="1" connectable="0" parent="-l0eyrN0Ik04eulUpfAW-51">
          <mxGeometry x="0.1336" relative="1" as="geometry">
            <mxPoint as="offset" />
          </mxGeometry>
        </mxCell>
        <mxCell id="-l0eyrN0Ik04eulUpfAW-98" style="edgeStyle=orthogonalEdgeStyle;rounded=0;orthogonalLoop=1;jettySize=auto;html=1;" edge="1" parent="1" source="-l0eyrN0Ik04eulUpfAW-21" target="-l0eyrN0Ik04eulUpfAW-97">
          <mxGeometry relative="1" as="geometry" />
        </mxCell>
        <mxCell id="-l0eyrN0Ik04eulUpfAW-99" value="hasResource" style="edgeLabel;html=1;align=center;verticalAlign=middle;resizable=0;points=[];" vertex="1" connectable="0" parent="-l0eyrN0Ik04eulUpfAW-98">
          <mxGeometry x="-0.2583" relative="1" as="geometry">
            <mxPoint as="offset" />
          </mxGeometry>
        </mxCell>
        <mxCell id="-l0eyrN0Ik04eulUpfAW-21" value="Pharamcy Service" style="ellipse;whiteSpace=wrap;html=1;" vertex="1" parent="1">
          <mxGeometry x="90" y="430" width="120" height="80" as="geometry" />
        </mxCell>
        <mxCell id="-l0eyrN0Ik04eulUpfAW-76" style="edgeStyle=orthogonalEdgeStyle;rounded=0;orthogonalLoop=1;jettySize=auto;html=1;endArrow=block;endFill=0;" edge="1" parent="1" source="-l0eyrN0Ik04eulUpfAW-27" target="-l0eyrN0Ik04eulUpfAW-75">
          <mxGeometry relative="1" as="geometry" />
        </mxCell>
        <mxCell id="-l0eyrN0Ik04eulUpfAW-27" value="Specialist Doctors" style="ellipse;whiteSpace=wrap;html=1;" vertex="1" parent="1">
          <mxGeometry x="260" y="220" width="120" height="80" as="geometry" />
        </mxCell>
        <mxCell id="-l0eyrN0Ik04eulUpfAW-30" value="indonesian rupiah" style="rounded=0;whiteSpace=wrap;html=1;fillColor=#e1d5e7;strokeColor=#9673a6;" vertex="1" parent="1">
          <mxGeometry x="580" y="510" width="120" height="30" as="geometry" />
        </mxCell>
        <mxCell id="-l0eyrN0Ik04eulUpfAW-45" style="edgeStyle=orthogonalEdgeStyle;rounded=0;orthogonalLoop=1;jettySize=auto;html=1;exitX=1;exitY=0;exitDx=0;exitDy=0;entryX=0;entryY=0.5;entryDx=0;entryDy=0;endArrow=block;endFill=0;" edge="1" parent="1" source="-l0eyrN0Ik04eulUpfAW-41" target="-l0eyrN0Ik04eulUpfAW-44">
          <mxGeometry relative="1" as="geometry" />
        </mxCell>
        <mxCell id="-l0eyrN0Ik04eulUpfAW-63" style="edgeStyle=orthogonalEdgeStyle;rounded=0;orthogonalLoop=1;jettySize=auto;html=1;endArrow=none;endFill=0;startArrow=block;startFill=0;" edge="1" parent="1" source="-l0eyrN0Ik04eulUpfAW-41" target="-l0eyrN0Ik04eulUpfAW-62">
          <mxGeometry relative="1" as="geometry" />
        </mxCell>
        <mxCell id="-l0eyrN0Ik04eulUpfAW-41" value="Patient Funding Transaction" style="ellipse;whiteSpace=wrap;html=1;dashed=1;" vertex="1" parent="1">
          <mxGeometry x="660" y="590" width="120" height="80" as="geometry" />
        </mxCell>
        <mxCell id="-l0eyrN0Ik04eulUpfAW-44" value="Funding Resource" style="ellipse;whiteSpace=wrap;html=1;" vertex="1" parent="1">
          <mxGeometry x="850" y="530" width="120" height="80" as="geometry" />
        </mxCell>
        <mxCell id="-l0eyrN0Ik04eulUpfAW-49" style="edgeStyle=orthogonalEdgeStyle;rounded=0;orthogonalLoop=1;jettySize=auto;html=1;entryX=0;entryY=1;entryDx=0;entryDy=0;endArrow=block;endFill=0;" edge="1" parent="1" source="-l0eyrN0Ik04eulUpfAW-46" target="-l0eyrN0Ik04eulUpfAW-20">
          <mxGeometry relative="1" as="geometry">
            <Array as="points">
              <mxPoint x="90" y="588" />
            </Array>
          </mxGeometry>
        </mxCell>
        <mxCell id="-l0eyrN0Ik04eulUpfAW-46" value="Adult Vaccine Service" style="ellipse;whiteSpace=wrap;html=1;" vertex="1" parent="1">
          <mxGeometry x="30" y="660" width="120" height="80" as="geometry" />
        </mxCell>
        <mxCell id="-l0eyrN0Ik04eulUpfAW-48" style="edgeStyle=orthogonalEdgeStyle;rounded=0;orthogonalLoop=1;jettySize=auto;html=1;entryX=0.5;entryY=1;entryDx=0;entryDy=0;endArrow=block;endFill=0;" edge="1" parent="1" source="-l0eyrN0Ik04eulUpfAW-47" target="-l0eyrN0Ik04eulUpfAW-20">
          <mxGeometry relative="1" as="geometry" />
        </mxCell>
        <mxCell id="-l0eyrN0Ik04eulUpfAW-47" value="Children Vaccine Service" style="ellipse;whiteSpace=wrap;html=1;" vertex="1" parent="1">
          <mxGeometry x="140" y="730" width="120" height="80" as="geometry" />
        </mxCell>
        <mxCell id="-l0eyrN0Ik04eulUpfAW-50" value="Patient Funding Transaction" style="ellipse;whiteSpace=wrap;html=1;dashed=1;" vertex="1" parent="1">
          <mxGeometry x="-120" y="350" width="120" height="80" as="geometry" />
        </mxCell>
        <mxCell id="-l0eyrN0Ik04eulUpfAW-56" style="edgeStyle=orthogonalEdgeStyle;rounded=0;orthogonalLoop=1;jettySize=auto;html=1;entryX=0.5;entryY=1;entryDx=0;entryDy=0;endArrow=block;endFill=0;" edge="1" parent="1" source="-l0eyrN0Ik04eulUpfAW-55" target="-l0eyrN0Ik04eulUpfAW-17">
          <mxGeometry relative="1" as="geometry" />
        </mxCell>
        <mxCell id="-l0eyrN0Ik04eulUpfAW-55" value="1stClassBed&lt;br&gt;2ndClassBed&lt;br&gt;3rdClassBed" style="ellipse;whiteSpace=wrap;html=1;dashed=1;dashPattern=12 12;" vertex="1" parent="1">
          <mxGeometry x="390" y="680" width="120" height="80" as="geometry" />
        </mxCell>
        <mxCell id="-l0eyrN0Ik04eulUpfAW-66" style="edgeStyle=orthogonalEdgeStyle;rounded=0;orthogonalLoop=1;jettySize=auto;html=1;exitX=1;exitY=0;exitDx=0;exitDy=0;entryX=0;entryY=1;entryDx=0;entryDy=0;endArrow=block;endFill=0;" edge="1" parent="1" source="-l0eyrN0Ik04eulUpfAW-57" target="-l0eyrN0Ik04eulUpfAW-41">
          <mxGeometry relative="1" as="geometry" />
        </mxCell>
        <mxCell id="-l0eyrN0Ik04eulUpfAW-121" style="edgeStyle=orthogonalEdgeStyle;rounded=0;orthogonalLoop=1;jettySize=auto;html=1;entryX=0.5;entryY=0;entryDx=0;entryDy=0;endArrow=none;endFill=0;" edge="1" parent="1" source="-l0eyrN0Ik04eulUpfAW-57" target="-l0eyrN0Ik04eulUpfAW-120">
          <mxGeometry relative="1" as="geometry" />
        </mxCell>
        <mxCell id="-l0eyrN0Ik04eulUpfAW-57" value="Cash Transaction" style="ellipse;whiteSpace=wrap;html=1;" vertex="1" parent="1">
          <mxGeometry x="575" y="770" width="120" height="80" as="geometry" />
        </mxCell>
        <mxCell id="-l0eyrN0Ik04eulUpfAW-58" value="hasNumberofBed" style="rounded=0;whiteSpace=wrap;html=1;fillColor=#e1d5e7;strokeColor=#9673a6;" vertex="1" parent="1">
          <mxGeometry x="520" y="650" width="120" height="30" as="geometry" />
        </mxCell>
        <mxCell id="-l0eyrN0Ik04eulUpfAW-64" style="edgeStyle=orthogonalEdgeStyle;rounded=0;orthogonalLoop=1;jettySize=auto;html=1;exitX=0;exitY=0;exitDx=0;exitDy=0;entryX=1;entryY=1;entryDx=0;entryDy=0;endArrow=block;endFill=0;" edge="1" parent="1" source="-l0eyrN0Ik04eulUpfAW-60" target="-l0eyrN0Ik04eulUpfAW-41">
          <mxGeometry relative="1" as="geometry" />
        </mxCell>
        <mxCell id="-l0eyrN0Ik04eulUpfAW-123" style="edgeStyle=orthogonalEdgeStyle;rounded=0;orthogonalLoop=1;jettySize=auto;html=1;exitX=0.5;exitY=1;exitDx=0;exitDy=0;entryX=0;entryY=0.5;entryDx=0;entryDy=0;endArrow=none;endFill=0;" edge="1" parent="1" source="-l0eyrN0Ik04eulUpfAW-60" target="-l0eyrN0Ik04eulUpfAW-122">
          <mxGeometry relative="1" as="geometry" />
        </mxCell>
        <mxCell id="-l0eyrN0Ik04eulUpfAW-60" value="Credit Card Transaction" style="ellipse;whiteSpace=wrap;html=1;" vertex="1" parent="1">
          <mxGeometry x="800" y="740" width="120" height="80" as="geometry" />
        </mxCell>
        <mxCell id="-l0eyrN0Ik04eulUpfAW-65" style="edgeStyle=orthogonalEdgeStyle;rounded=0;orthogonalLoop=1;jettySize=auto;html=1;exitX=0.5;exitY=0;exitDx=0;exitDy=0;entryX=0.567;entryY=0.988;entryDx=0;entryDy=0;entryPerimeter=0;endArrow=block;endFill=0;" edge="1" parent="1" source="-l0eyrN0Ik04eulUpfAW-61" target="-l0eyrN0Ik04eulUpfAW-41">
          <mxGeometry relative="1" as="geometry">
            <Array as="points">
              <mxPoint x="740" y="760" />
              <mxPoint x="728" y="760" />
            </Array>
          </mxGeometry>
        </mxCell>
        <mxCell id="-l0eyrN0Ik04eulUpfAW-125" style="edgeStyle=orthogonalEdgeStyle;rounded=0;orthogonalLoop=1;jettySize=auto;html=1;entryX=0.5;entryY=0;entryDx=0;entryDy=0;endArrow=none;endFill=0;" edge="1" parent="1" source="-l0eyrN0Ik04eulUpfAW-61" target="-l0eyrN0Ik04eulUpfAW-124">
          <mxGeometry relative="1" as="geometry" />
        </mxCell>
        <mxCell id="-l0eyrN0Ik04eulUpfAW-61" value="Debit Card Transaction" style="ellipse;whiteSpace=wrap;html=1;" vertex="1" parent="1">
          <mxGeometry x="680" y="840" width="120" height="80" as="geometry" />
        </mxCell>
        <mxCell id="-l0eyrN0Ik04eulUpfAW-62" value="Insurance Payment Transaction" style="ellipse;whiteSpace=wrap;html=1;" vertex="1" parent="1">
          <mxGeometry x="860" y="660" width="120" height="80" as="geometry" />
        </mxCell>
        <mxCell id="-l0eyrN0Ik04eulUpfAW-72" style="edgeStyle=orthogonalEdgeStyle;rounded=0;orthogonalLoop=1;jettySize=auto;html=1;entryX=0.5;entryY=1;entryDx=0;entryDy=0;endArrow=block;endFill=0;" edge="1" parent="1" source="-l0eyrN0Ik04eulUpfAW-67" target="-l0eyrN0Ik04eulUpfAW-71">
          <mxGeometry relative="1" as="geometry" />
        </mxCell>
        <mxCell id="-l0eyrN0Ik04eulUpfAW-118" style="edgeStyle=orthogonalEdgeStyle;rounded=0;orthogonalLoop=1;jettySize=auto;html=1;entryX=0.5;entryY=0;entryDx=0;entryDy=0;endArrow=block;endFill=0;" edge="1" parent="1" source="-l0eyrN0Ik04eulUpfAW-67" target="-l0eyrN0Ik04eulUpfAW-62">
          <mxGeometry relative="1" as="geometry">
            <Array as="points">
              <mxPoint x="920" y="630" />
            </Array>
          </mxGeometry>
        </mxCell>
        <mxCell id="-l0eyrN0Ik04eulUpfAW-67" value="Private Insurance Transaction" style="ellipse;whiteSpace=wrap;html=1;" vertex="1" parent="1">
          <mxGeometry x="1040" y="600" width="120" height="80" as="geometry" />
        </mxCell>
        <mxCell id="-l0eyrN0Ik04eulUpfAW-74" style="edgeStyle=orthogonalEdgeStyle;rounded=0;orthogonalLoop=1;jettySize=auto;html=1;endArrow=block;endFill=0;" edge="1" parent="1" source="-l0eyrN0Ik04eulUpfAW-68" target="-l0eyrN0Ik04eulUpfAW-73">
          <mxGeometry relative="1" as="geometry" />
        </mxCell>
        <mxCell id="-l0eyrN0Ik04eulUpfAW-119" style="edgeStyle=orthogonalEdgeStyle;rounded=0;orthogonalLoop=1;jettySize=auto;html=1;entryX=0.5;entryY=1;entryDx=0;entryDy=0;endArrow=block;endFill=0;" edge="1" parent="1" source="-l0eyrN0Ik04eulUpfAW-68" target="-l0eyrN0Ik04eulUpfAW-62">
          <mxGeometry relative="1" as="geometry" />
        </mxCell>
        <mxCell id="-l0eyrN0Ik04eulUpfAW-68" value="Public Insurance Transaction" style="ellipse;whiteSpace=wrap;html=1;" vertex="1" parent="1">
          <mxGeometry x="1040" y="720" width="120" height="80" as="geometry" />
        </mxCell>
        <mxCell id="-l0eyrN0Ik04eulUpfAW-71" value="Private Funding Resource" style="ellipse;whiteSpace=wrap;html=1;" vertex="1" parent="1">
          <mxGeometry x="1040" y="480" width="120" height="80" as="geometry" />
        </mxCell>
        <mxCell id="-l0eyrN0Ik04eulUpfAW-73" value="Federal Funding Resource" style="ellipse;whiteSpace=wrap;html=1;" vertex="1" parent="1">
          <mxGeometry x="1040" y="850" width="120" height="80" as="geometry" />
        </mxCell>
        <mxCell id="-l0eyrN0Ik04eulUpfAW-77" style="edgeStyle=orthogonalEdgeStyle;rounded=0;orthogonalLoop=1;jettySize=auto;html=1;entryX=0.5;entryY=0;entryDx=0;entryDy=0;" edge="1" parent="1" source="-l0eyrN0Ik04eulUpfAW-75" target="-l0eyrN0Ik04eulUpfAW-50">
          <mxGeometry relative="1" as="geometry" />
        </mxCell>
        <mxCell id="-l0eyrN0Ik04eulUpfAW-78" value="requires payment&lt;br&gt;transaction" style="edgeLabel;html=1;align=center;verticalAlign=middle;resizable=0;points=[];" vertex="1" connectable="0" parent="-l0eyrN0Ik04eulUpfAW-77">
          <mxGeometry x="-0.1182" relative="1" as="geometry">
            <mxPoint x="30" as="offset" />
          </mxGeometry>
        </mxCell>
        <mxCell id="-l0eyrN0Ik04eulUpfAW-80" style="edgeStyle=orthogonalEdgeStyle;rounded=0;orthogonalLoop=1;jettySize=auto;html=1;entryX=0.5;entryY=1;entryDx=0;entryDy=0;" edge="1" parent="1" source="-l0eyrN0Ik04eulUpfAW-75" target="-l0eyrN0Ik04eulUpfAW-79">
          <mxGeometry relative="1" as="geometry" />
        </mxCell>
        <mxCell id="-l0eyrN0Ik04eulUpfAW-81" value="has Policy" style="edgeLabel;html=1;align=center;verticalAlign=middle;resizable=0;points=[];" vertex="1" connectable="0" parent="-l0eyrN0Ik04eulUpfAW-80">
          <mxGeometry x="-0.1714" relative="1" as="geometry">
            <mxPoint as="offset" />
          </mxGeometry>
        </mxCell>
        <mxCell id="-l0eyrN0Ik04eulUpfAW-75" value="Physician" style="ellipse;whiteSpace=wrap;html=1;" vertex="1" parent="1">
          <mxGeometry x="70" y="220" width="120" height="80" as="geometry" />
        </mxCell>
        <mxCell id="-l0eyrN0Ik04eulUpfAW-83" style="edgeStyle=orthogonalEdgeStyle;rounded=0;orthogonalLoop=1;jettySize=auto;html=1;entryX=1;entryY=0.5;entryDx=0;entryDy=0;endArrow=block;endFill=0;" edge="1" parent="1" source="-l0eyrN0Ik04eulUpfAW-79" target="-l0eyrN0Ik04eulUpfAW-82">
          <mxGeometry relative="1" as="geometry" />
        </mxCell>
        <mxCell id="-l0eyrN0Ik04eulUpfAW-79" value="Schedule Service" style="ellipse;whiteSpace=wrap;html=1;" vertex="1" parent="1">
          <mxGeometry x="70" y="70" width="120" height="80" as="geometry" />
        </mxCell>
        <mxCell id="-l0eyrN0Ik04eulUpfAW-82" value="Policy" style="ellipse;whiteSpace=wrap;html=1;" vertex="1" parent="1">
          <mxGeometry x="-120" y="70" width="120" height="80" as="geometry" />
        </mxCell>
        <mxCell id="-l0eyrN0Ik04eulUpfAW-87" style="edgeStyle=orthogonalEdgeStyle;rounded=0;orthogonalLoop=1;jettySize=auto;html=1;entryX=0;entryY=0;entryDx=0;entryDy=0;endArrow=block;endFill=0;" edge="1" parent="1" source="-l0eyrN0Ik04eulUpfAW-84" target="-l0eyrN0Ik04eulUpfAW-27">
          <mxGeometry relative="1" as="geometry">
            <Array as="points">
              <mxPoint x="260" y="232" />
            </Array>
          </mxGeometry>
        </mxCell>
        <mxCell id="-l0eyrN0Ik04eulUpfAW-84" value="Cardiologist" style="ellipse;whiteSpace=wrap;html=1;" vertex="1" parent="1">
          <mxGeometry x="200" y="60" width="120" height="80" as="geometry" />
        </mxCell>
        <mxCell id="-l0eyrN0Ik04eulUpfAW-90" style="edgeStyle=orthogonalEdgeStyle;rounded=0;orthogonalLoop=1;jettySize=auto;html=1;entryX=0.5;entryY=0;entryDx=0;entryDy=0;endArrow=block;endFill=0;" edge="1" parent="1" source="-l0eyrN0Ik04eulUpfAW-88" target="-l0eyrN0Ik04eulUpfAW-27">
          <mxGeometry relative="1" as="geometry" />
        </mxCell>
        <mxCell id="-l0eyrN0Ik04eulUpfAW-88" value="Internist" style="ellipse;whiteSpace=wrap;html=1;" vertex="1" parent="1">
          <mxGeometry x="270" y="-40" width="120" height="80" as="geometry" />
        </mxCell>
        <mxCell id="-l0eyrN0Ik04eulUpfAW-94" style="edgeStyle=orthogonalEdgeStyle;rounded=0;orthogonalLoop=1;jettySize=auto;html=1;exitX=0;exitY=1;exitDx=0;exitDy=0;entryX=0.775;entryY=0.113;entryDx=0;entryDy=0;entryPerimeter=0;endArrow=block;endFill=0;" edge="1" parent="1" source="-l0eyrN0Ik04eulUpfAW-91" target="-l0eyrN0Ik04eulUpfAW-27">
          <mxGeometry relative="1" as="geometry" />
        </mxCell>
        <mxCell id="-l0eyrN0Ik04eulUpfAW-91" value="Neurologist" style="ellipse;whiteSpace=wrap;html=1;" vertex="1" parent="1">
          <mxGeometry x="360" y="40" width="120" height="80" as="geometry" />
        </mxCell>
        <mxCell id="-l0eyrN0Ik04eulUpfAW-95" style="edgeStyle=orthogonalEdgeStyle;rounded=0;orthogonalLoop=1;jettySize=auto;html=1;exitX=0;exitY=1;exitDx=0;exitDy=0;endArrow=block;endFill=0;" edge="1" parent="1" source="-l0eyrN0Ik04eulUpfAW-92">
          <mxGeometry relative="1" as="geometry">
            <mxPoint x="380" y="247" as="targetPoint" />
            <Array as="points">
              <mxPoint x="518" y="140" />
              <mxPoint x="440" y="140" />
              <mxPoint x="440" y="247" />
            </Array>
          </mxGeometry>
        </mxCell>
        <mxCell id="-l0eyrN0Ik04eulUpfAW-92" value="Pediatrician" style="ellipse;whiteSpace=wrap;html=1;" vertex="1" parent="1">
          <mxGeometry x="500" y="40" width="120" height="80" as="geometry" />
        </mxCell>
        <mxCell id="-l0eyrN0Ik04eulUpfAW-96" style="edgeStyle=orthogonalEdgeStyle;rounded=0;orthogonalLoop=1;jettySize=auto;html=1;endArrow=block;endFill=0;" edge="1" parent="1" source="-l0eyrN0Ik04eulUpfAW-93" target="-l0eyrN0Ik04eulUpfAW-27">
          <mxGeometry relative="1" as="geometry" />
        </mxCell>
        <mxCell id="-l0eyrN0Ik04eulUpfAW-93" value="Pulmologist" style="ellipse;whiteSpace=wrap;html=1;" vertex="1" parent="1">
          <mxGeometry x="530" y="140" width="120" height="80" as="geometry" />
        </mxCell>
        <mxCell id="-l0eyrN0Ik04eulUpfAW-101" style="edgeStyle=orthogonalEdgeStyle;rounded=0;orthogonalLoop=1;jettySize=auto;html=1;endArrow=block;endFill=0;" edge="1" parent="1" source="-l0eyrN0Ik04eulUpfAW-97" target="-l0eyrN0Ik04eulUpfAW-100">
          <mxGeometry relative="1" as="geometry" />
        </mxCell>
        <mxCell id="-l0eyrN0Ik04eulUpfAW-97" value="Medical Drug Resource" style="ellipse;whiteSpace=wrap;html=1;" vertex="1" parent="1">
          <mxGeometry x="-140" y="580" width="120" height="80" as="geometry" />
        </mxCell>
        <mxCell id="-l0eyrN0Ik04eulUpfAW-100" value="Material Resource" style="ellipse;whiteSpace=wrap;html=1;" vertex="1" parent="1">
          <mxGeometry x="-140" y="800" width="120" height="80" as="geometry" />
        </mxCell>
        <mxCell id="-l0eyrN0Ik04eulUpfAW-105" style="edgeStyle=orthogonalEdgeStyle;rounded=0;orthogonalLoop=1;jettySize=auto;html=1;entryX=1;entryY=0.5;entryDx=0;entryDy=0;endArrow=block;endFill=0;" edge="1" parent="1" source="-l0eyrN0Ik04eulUpfAW-102" target="-l0eyrN0Ik04eulUpfAW-100">
          <mxGeometry relative="1" as="geometry" />
        </mxCell>
        <mxCell id="-l0eyrN0Ik04eulUpfAW-102" value="Vaccine Resource" style="ellipse;whiteSpace=wrap;html=1;" vertex="1" parent="1">
          <mxGeometry x="260" y="800" width="120" height="80" as="geometry" />
        </mxCell>
        <mxCell id="-l0eyrN0Ik04eulUpfAW-114" style="edgeStyle=orthogonalEdgeStyle;rounded=0;orthogonalLoop=1;jettySize=auto;html=1;endArrow=block;endFill=0;" edge="1" parent="1" source="-l0eyrN0Ik04eulUpfAW-113" target="-l0eyrN0Ik04eulUpfAW-79">
          <mxGeometry relative="1" as="geometry" />
        </mxCell>
        <mxCell id="-l0eyrN0Ik04eulUpfAW-116" style="edgeStyle=orthogonalEdgeStyle;rounded=0;orthogonalLoop=1;jettySize=auto;html=1;entryX=1;entryY=0.5;entryDx=0;entryDy=0;endArrow=none;endFill=0;" edge="1" parent="1" source="-l0eyrN0Ik04eulUpfAW-113" target="-l0eyrN0Ik04eulUpfAW-115">
          <mxGeometry relative="1" as="geometry" />
        </mxCell>
        <mxCell id="-l0eyrN0Ik04eulUpfAW-113" value="Afternoon Service&lt;br&gt;All Day Service&lt;br&gt;Morning Service&lt;br&gt;Noon Service" style="ellipse;whiteSpace=wrap;html=1;dashed=1;dashPattern=12 12;" vertex="1" parent="1">
          <mxGeometry x="70" y="-99" width="120" height="80" as="geometry" />
        </mxCell>
        <mxCell id="-l0eyrN0Ik04eulUpfAW-115" value="time of day" style="rounded=0;whiteSpace=wrap;html=1;fillColor=#e1d5e7;strokeColor=#9673a6;" vertex="1" parent="1">
          <mxGeometry x="-110" y="-74" width="120" height="30" as="geometry" />
        </mxCell>
        <mxCell id="-l0eyrN0Ik04eulUpfAW-120" value="indonesian rupiah" style="rounded=0;whiteSpace=wrap;html=1;fillColor=#e1d5e7;strokeColor=#9673a6;" vertex="1" parent="1">
          <mxGeometry x="490" y="898" width="120" height="30" as="geometry" />
        </mxCell>
        <mxCell id="-l0eyrN0Ik04eulUpfAW-122" value="indonesian rupiah" style="rounded=0;whiteSpace=wrap;html=1;fillColor=#e1d5e7;strokeColor=#9673a6;" vertex="1" parent="1">
          <mxGeometry x="879" y="850" width="120" height="30" as="geometry" />
        </mxCell>
        <mxCell id="-l0eyrN0Ik04eulUpfAW-124" value="indonesian rupiah" style="rounded=0;whiteSpace=wrap;html=1;fillColor=#e1d5e7;strokeColor=#9673a6;" vertex="1" parent="1">
          <mxGeometry x="680" y="960" width="120" height="30" as="geometry" />
        </mxCell>
      </root>
    </mxGraphModel>
  </diagram>
</mxfile>
